<?xml version="1.0" encoding="UTF-8"?><svg id="Layer_2" xmlns="http://www.w3.org/2000/svg" viewBox="0 0 560.9 411.27"><defs><style>.cls-1{fill:none;}.cls-1,.cls-2,.cls-3,.cls-4,.cls-5,.cls-6,.cls-7,.cls-8,.cls-9,.cls-10{stroke-width:0px;}.cls-11{opacity:.3;}.cls-3{fill:#263238;}.cls-4{fill:#455a64;}.cls-5{fill:#e0e0e0;}.cls-6{fill:#ff725e;}.cls-7{fill:#fff;}.cls-8{fill:#fafafa;}.cls-9{fill:#ebebeb;}.cls-10{fill:#f5f5f5;}</style></defs><g id="Character"><path class="cls-10" d="M332.74,121.03c-.8,0-1.6-.13-2.37-.4l-12.24-4.24c-2.44-.85-4.27-2.95-4.75-5.49l-2.45-12.72c-.49-2.54.42-5.17,2.38-6.86l9.8-8.48c1.96-1.69,4.69-2.22,7.13-1.37l12.24,4.24c2.44.85,4.27,2.95,4.76,5.49l2.45,12.72c.49,2.54-.42,5.17-2.38,6.86l-9.8,8.48c-1.34,1.16-3.04,1.77-4.76,1.77ZM321.15,108.97l11.44,3.96,9.15-7.93-2.29-11.89-11.44-3.96-9.15,7.93,2.29,11.89Z"/><path class="cls-10" d="M475.59,84.08c-.8,0-1.6-.13-2.37-.4l-6.2-2.15c-2.45-.85-4.27-2.95-4.75-5.49l-1.24-6.44c-.49-2.54.42-5.17,2.38-6.86l4.96-4.3c1.96-1.69,4.69-2.22,7.13-1.37l6.2,2.15c2.45.85,4.27,2.95,4.76,5.49l1.24,6.44c.49,2.54-.42,5.17-2.38,6.86l-4.96,4.3c-1.34,1.16-3.04,1.77-4.76,1.77ZM470.04,74.11l5.39,1.87,4.32-3.74-1.08-5.61-5.39-1.87-4.32,3.74,1.08,5.61Z"/><path class="cls-5" d="M23.85,221.77c-2.03,0-3.99-.92-5.28-2.53l-8.21-10.23c-1.51-1.88-1.9-4.44-1.02-6.69l4.76-12.22c.87-2.24,2.9-3.87,5.28-4.23l12.97-1.99c2.38-.36,4.8.58,6.3,2.46l8.2,10.23c1.51,1.88,1.9,4.44,1.03,6.69l-4.76,12.22c-.87,2.25-2.9,3.87-5.28,4.23l-12.97,1.99c-.34.05-.68.08-1.02.08ZM15.9,204.73l8.04,10.02,12.7-1.95,4.66-11.97-8.04-10.02-12.7,1.95-4.66,11.97ZM41.38,200.95h0s0,0,0,0Z"/><path class="cls-9" d="M57.03,132.14h-7.73c-1.87,0-3.62-1.01-4.56-2.63l-3.87-6.7c-.94-1.62-.94-3.64,0-5.26l3.87-6.7c.94-1.62,2.68-2.63,4.56-2.63h7.73c1.87,0,3.62,1.01,4.56,2.63l3.87,6.7c.94,1.62.94,3.64,0,5.26l-3.87,6.7c-.94,1.62-2.68,2.63-4.56,2.63ZM49.3,112.22c-.45,0-.87.24-1.09.63l-3.87,6.7c-.23.39-.23.87,0,1.26l3.87,6.7c.23.39.64.63,1.09.63h7.73c.45,0,.87-.24,1.1-.63l3.87-6.7c.23-.39.23-.87,0-1.26l-3.87-6.7c-.23-.39-.64-.63-1.1-.63h-7.73Z"/><polygon class="cls-9" points="188.93 56.5 173.85 47.01 155.34 15.77 129.59 0 124.6 5.4 127.22 8.91 135.34 19.82 167.62 63.14 180.78 70.38 188.93 56.5"/><polygon class="cls-9" points="169.98 78.96 165.66 64.57 118.24 10.39 111.91 14.13 121.93 42.62 149.46 69.66 155.63 86.55 169.98 78.96"/><path class="cls-5" d="M195.67,59.18s53.55,29.39,64.34,39.31,35.99,51.23,33.44,56.51c-2.56,5.28-4.52,5.95-10.33.88-5.81-5.07-24.58-33.42-29.63-38-5.05-4.58-67.78-41.38-67.78-41.38l9.96-17.31Z"/><circle class="cls-9" cx="159.36" cy="54.8" r="16.96"/><path class="cls-5" d="M155.1,71.22c.01-.09,1.46.41,4.14.43,1.34.03,2.98-.18,4.8-.71,1.82-.54,3.81-1.47,5.67-2.96,1.85-1.48,3.62-3.5,4.79-6.05,1.14-2.54,1.84-5.56,1.49-8.69-.13-1.57-.52-3.15-1.14-4.66-.28-.77-.7-1.5-1.08-2.24-.46-.7-.9-1.42-1.46-2.07-2.13-2.68-5.24-4.68-8.74-5.63-3.51-.88-7.21-.64-10.37.66-.81.29-1.54.71-2.29,1.1-.7.46-1.42.89-2.04,1.43-1.28,1.02-2.4,2.21-3.27,3.52-1.83,2.57-2.69,5.54-2.93,8.32-.23,2.8.34,5.42,1.24,7.62.91,2.21,2.19,3.99,3.52,5.34,1.33,1.35,2.67,2.33,3.85,2.96,2.35,1.29,3.86,1.56,3.83,1.64,0,0-.09-.01-.27-.06-.2-.06-.46-.13-.78-.22-.35-.09-.77-.22-1.24-.43-.48-.2-1.05-.41-1.63-.76-1.21-.6-2.58-1.58-3.96-2.93-1.37-1.36-2.7-3.16-3.65-5.41-.94-2.24-1.54-4.92-1.33-7.79.22-2.85,1.1-5.91,2.97-8.56.89-1.35,2.04-2.57,3.35-3.63.64-.56,1.37-1,2.09-1.48.76-.4,1.52-.83,2.35-1.13,3.26-1.35,7.07-1.6,10.69-.69,3.61.97,6.81,3.05,9,5.81.58.67,1.03,1.41,1.5,2.14.4.77.82,1.51,1.11,2.31.64,1.57,1.03,3.19,1.16,4.81.34,3.23-.39,6.32-1.58,8.92-1.21,2.61-3.04,4.66-4.95,6.16-1.92,1.5-3.97,2.43-5.82,2.95-1.86.51-3.53.69-4.89.63-.68.02-1.28-.07-1.79-.13-.52-.05-.95-.14-1.3-.23-.32-.08-.58-.14-.79-.19-.18-.05-.27-.07-.26-.08Z"/><path class="cls-5" d="M156.95,64.07c-5.12-1.33-8.19-6.56-6.86-11.68,1.33-5.12,6.56-8.19,11.68-6.86,5.12,1.33,8.19,6.56,6.86,11.68-1.33,5.12-6.56,8.19-11.68,6.86Z"/><path class="cls-5" d="M156.95,64.07c.01-.07.83.2,2.34.2,1.48,0,3.76-.41,5.87-2.09,1.03-.83,2.02-1.96,2.67-3.39.63-1.42,1.02-3.11.82-4.86-.07-.87-.29-1.76-.64-2.6-.34-.85-.81-1.67-1.42-2.4-1.19-1.49-2.92-2.61-4.88-3.14-1.96-.49-4.02-.36-5.79.36-.89.34-1.71.82-2.42,1.41-.72.57-1.34,1.23-1.83,1.96-1.02,1.43-1.51,3.09-1.65,4.64-.13,1.56.18,3.03.68,4.26,1.03,2.49,2.82,3.95,4.11,4.68,1.32.74,2.16.9,2.14.97,0,0-.86-.09-2.24-.79-1.35-.69-3.24-2.14-4.35-4.71-.54-1.27-.89-2.8-.77-4.43.12-1.62.62-3.37,1.68-4.89.51-.77,1.16-1.47,1.91-2.08.74-.62,1.6-1.13,2.54-1.49,1.86-.77,4.04-.91,6.11-.39,2.06.55,3.89,1.74,5.14,3.32.64.77,1.14,1.64,1.49,2.54.36.89.59,1.82.66,2.74.19,1.84-.23,3.61-.91,5.09-.69,1.49-1.74,2.65-2.83,3.5-2.22,1.71-4.58,2.06-6.09,2-1.54-.06-2.34-.4-2.34-.4Z"/><path class="cls-9" d="M181.53,58.07h13.9c4.07,0,7.38,3.31,7.38,7.38v.75c0,4.07-3.31,7.38-7.38,7.38h-13.9c-4.07,0-7.38-3.31-7.38-7.38v-.75c0-4.07,3.31-7.38,7.38-7.38Z" transform="translate(37.5 196.45) rotate(-60.12)"/><path class="cls-5" d="M178.29,67.99c.07.03-.6.93-.83,2.82-.1.94-.02,2.12.44,3.37.25.62.58,1.25,1.04,1.86.47.59,1.05,1.15,1.75,1.61.71.44,1.49.92,2.34,1.2.86.29,1.81.42,2.79.35,1.95-.13,3.98-1.15,5.28-2.92,2.3-3.84,4.73-8.22,7.35-12.73,1.26-2.19,1.23-4.97.03-7.04-.57-1.05-1.41-1.91-2.38-2.52-.99-.63-1.99-1.17-3.08-1.36-2.15-.44-4.35.17-5.87,1.4-1.57,1.2-2.26,3.02-3.18,4.46-1.72,2.92-3.11,5.29-4.11,6.99-.47.79-.85,1.41-1.14,1.89-.27.43-.41.65-.43.64-.02,0,.1-.25.34-.69.27-.49.62-1.13,1.06-1.94.96-1.72,2.31-4.12,3.97-7.07.42-.75.86-1.53,1.32-2.34.47-.83,1.1-1.63,1.91-2.28,1.6-1.32,3.93-1.99,6.23-1.53,1.16.2,2.25.78,3.25,1.42,1.03.65,1.94,1.57,2.55,2.69,1.29,2.21,1.33,5.19-.03,7.55-2.63,4.53-5.03,8.84-7.41,12.76-1.4,1.89-3.57,2.96-5.64,3.07-1.03.06-2.04-.09-2.95-.4-.92-.32-1.68-.8-2.42-1.27-.72-.49-1.33-1.09-1.8-1.71-.47-.64-.8-1.31-1.05-1.95-.45-1.31-.5-2.54-.37-3.5.13-.97.43-1.66.64-2.13.24-.45.38-.67.4-.66Z"/><path class="cls-5" d="M157.62,95.08s20.29,57.62,28.33,69.88c8.04,12.26,44.69,43.85,50.32,42.18,5.62-1.67,6.61-3.49,2.55-10.05s-28.98-29.69-32.68-35.42c-3.7-5.73-29.81-73.6-29.81-73.6l-18.7,7.01Z"/><path class="cls-9" d="M158.4,81.32h13.9c4.08,0,7.38,3.31,7.38,7.38v.75c0,4.07-3.31,7.38-7.38,7.38h-13.91c-4.07,0-7.38-3.31-7.38-7.38v-.75c0-4.07,3.31-7.38,7.38-7.38Z" transform="translate(-20.73 63.62) rotate(-20.52)"/><path class="cls-5" d="M169.14,79.37s.24-.11.72-.28c.49-.12,1.23-.31,2.2-.28.97.03,2.16.28,3.39.94.6.35,1.2.79,1.76,1.35.54.57,1.03,1.26,1.4,2.06.35.8.7,1.63.86,2.59.16.95.15,1.96-.08,2.98-.45,2.02-1.85,3.99-3.95,5.06-4.25,1.71-8.9,3.38-13.79,5.24-2.54.96-5.48.43-7.45-1.2-1-.79-1.76-1.83-2.24-2.96-.46-1.09-.86-2.26-.87-3.44-.08-2.35.96-4.54,2.52-5.9.77-.69,1.66-1.19,2.56-1.51.88-.32,1.72-.63,2.52-.93,3.18-1.15,5.77-2.09,7.62-2.77.87-.3,1.56-.54,2.08-.73.48-.16.73-.24.74-.22s-.24.13-.7.32c-.51.21-1.2.48-2.05.82-1.84.71-4.41,1.7-7.57,2.92-1.57.67-3.48,1.06-4.92,2.42-1.46,1.3-2.42,3.37-2.33,5.56.01,1.1.39,2.18.85,3.26.45,1.05,1.16,2.02,2.1,2.76,1.84,1.52,4.58,2,6.95,1.11,4.87-1.85,9.6-3.54,13.76-5.18,1.97-.99,3.3-2.83,3.74-4.73.23-.95.25-1.91.11-2.81-.14-.89-.48-1.73-.8-2.5-.34-.76-.79-1.43-1.3-1.98-.52-.55-1.09-.98-1.66-1.32-1.16-.66-2.31-.93-3.25-.99-1.9-.08-2.9.44-2.91.36Z"/><path class="cls-3" d="M560.9,411.01c0,.14-32.44.26-220.43.26s-340.47-.12-340.47-.26,152.4-.26,340.47-.26,220.43.12,220.43.26Z"/><path class="cls-5" d="M53.16,296.61c.28-.84,31.43-102.69,31.43-102.69l-.78-12.65,8.15-13.42,10.12,3.34-1.39,15.04-7.19,10.94-31.39,102.34-8.96-2.89Z"/><path class="cls-3" d="M53.16,296.61s.21.06.6.18c.4.13.98.3,1.73.54,1.53.48,3.76,1.18,6.66,2.1l-.12.06c5.07-16.62,16.79-55.06,31.23-102.38v-.03s.03-.03.03-.03c2.28-3.47,4.72-7.18,7.19-10.94l-.04.12c.44-4.8.91-9.89,1.38-15.04l.18.27c-.26-.09-.55-.18-.84-.28-3.12-1.03-6.22-2.05-9.29-3.07l.3-.11c-2.77,4.56-5.49,9.04-8.15,13.42l.04-.15c.26,4.31.52,8.53.77,12.65v.05s-.01.04-.01.04c-9.11,29.59-16.99,55.22-22.61,73.47-2.82,9.12-5.08,16.4-6.63,21.41-.78,2.49-1.38,4.42-1.79,5.74-.2.64-.36,1.14-.47,1.49-.11.34-.17.51-.17.51,0,0,.04-.16.13-.49.1-.35.25-.83.43-1.47.39-1.31.97-3.23,1.71-5.71,1.52-5.01,3.72-12.28,6.48-21.4,5.57-18.3,13.4-44.01,22.44-73.7v.09c-.27-4.12-.53-8.34-.8-12.65v-.08s.04-.07.04-.07c2.66-4.38,5.38-8.86,8.15-13.42l.11-.18.2.06c3.07,1.01,6.16,2.03,9.29,3.07.29.09.57.19.84.28l.2.07-.02.21c-.48,5.15-.94,10.24-1.39,15.04v.06s-.04.05-.04.05c-2.48,3.76-4.92,7.47-7.2,10.93l.03-.07c-14.58,47.29-26.42,85.69-31.54,102.29l-.03.09-.09-.03c-2.91-.96-5.15-1.7-6.67-2.21-.74-.25-1.3-.44-1.7-.57-.38-.13-.56-.2-.56-.2Z"/><path class="cls-6" d="M45.64,301.56l-13.99,18.92-19.57,70.99s-2.81,14.48,13.18,18.59c17.96,4.62,22.1-9.14,22.1-9.14l19.03-69.33-.29-24.06,4.7-5.29c.95-1.06.49-2.75-.86-3.19l-22.47-7.42c-1.36-.45-2.73.65-2.59,2.07l.76,7.86Z"/><path class="cls-3" d="M66.26,308.37c-.04.14-4.75-1.24-10.52-3.06-5.77-1.83-10.41-3.42-10.36-3.56.04-.14,4.75,1.23,10.52,3.07,5.77,1.83,10.4,3.42,10.36,3.56Z"/><path class="cls-3" d="M66.39,331.6s-.51-.05-1.4-.25c-.9-.19-2.18-.49-3.77-.89-3.17-.8-7.53-2-12.29-3.52-4.76-1.52-9.01-3.06-12.06-4.25-1.52-.59-2.75-1.09-3.59-1.46-.84-.36-1.3-.58-1.29-.61.01-.03.5.12,1.36.42.95.34,2.18.78,3.65,1.3,3.08,1.1,7.34,2.58,12.09,4.1,4.75,1.51,9.08,2.78,12.23,3.66,1.5.42,2.75.78,3.73,1.05.88.25,1.36.41,1.35.44Z"/><g class="cls-11"><rect class="cls-2" x="25.05" y="326.33" width="7.11" height="68.49" rx="3.3" ry="3.3" transform="translate(103.54 6.72) rotate(16.49)"/></g><g class="cls-11"><rect class="cls-2" x="35.02" y="329.62" width="7.11" height="68.49" rx="3.3" ry="3.3" transform="translate(104.9 4.02) rotate(16.5)"/></g><g class="cls-11"><rect class="cls-2" x="45.61" y="332.75" width="7.11" height="68.49" rx="3.3" ry="3.3" transform="translate(106.21 1.14) rotate(16.49)"/></g><path class="cls-3" d="M93.41,197.14c-.05.14-2.04-.43-4.45-1.26-2.41-.83-4.33-1.62-4.28-1.76s2.04.43,4.45,1.26c2.41.83,4.33,1.62,4.28,1.76Z"/><path class="cls-3" d="M102.09,171.19s-.1.5-.35,1.4c-.29.97-.67,2.26-1.14,3.82-1.03,3.32-2.43,7.83-4.03,12.96l-.08.25-.25-.09c-1.49-.52-3.03-1.05-4.61-1.6-1.63-.57-3.22-1.13-4.75-1.67l-.23-.08.06-.23c1.45-5.14,2.72-9.65,3.65-12.97.46-1.56.83-2.83,1.12-3.79.27-.89.43-1.36.46-1.36.03,0-.07.5-.29,1.4-.25.97-.57,2.26-.97,3.83-.89,3.33-2.1,7.85-3.48,13.01l-.16-.31c1.53.53,3.12,1.09,4.75,1.65,1.58.55,3.12,1.09,4.6,1.62l-.33.16c1.66-5.11,3.12-9.6,4.2-12.9.53-1.55.96-2.82,1.28-3.78.31-.88.49-1.36.52-1.35Z"/><path class="cls-5" d="M397.05,69.47c-.8,0-1.6-.13-2.37-.4l-12.24-4.24c-2.44-.85-4.27-2.95-4.75-5.49l-2.45-12.73c-.49-2.54.42-5.17,2.38-6.86l9.8-8.48c1.96-1.69,4.69-2.22,7.13-1.37l12.24,4.24c2.45.85,4.27,2.95,4.76,5.49l2.45,12.72c.49,2.54-.42,5.17-2.38,6.86l-9.79,8.48c-1.34,1.16-3.04,1.77-4.76,1.77ZM385.45,57.4l11.44,3.96,9.15-7.93-2.29-11.89-11.44-3.96-9.15,7.93,2.29,11.89Z"/><path class="cls-1" d="M397.05,69.47c-.8,0-1.6-.13-2.37-.4l-12.24-4.24c-2.44-.85-4.27-2.95-4.75-5.49l-2.45-12.73c-.49-2.54.42-5.17,2.38-6.86l9.8-8.48c1.96-1.69,4.69-2.22,7.13-1.37l12.24,4.24c2.45.85,4.27,2.95,4.76,5.49l2.45,12.72c.49,2.54-.42,5.17-2.38,6.86l-9.79,8.48c-1.34,1.16-3.04,1.77-4.76,1.77ZM385.45,57.4l11.44,3.96,9.15-7.93-2.29-11.89-11.44-3.96-9.15,7.93,2.29,11.89Z"/><path class="cls-3" d="M385.45,57.4s-.08-.26-.2-.79c-.13-.59-.29-1.37-.5-2.35-.43-2.12-1.03-5.08-1.77-8.72-.01-.07.01-.14.06-.18,2.6-2.27,5.7-4.98,9.12-7.96.07-.06.16-.07.24-.05,3.54,1.22,7.41,2.56,11.44,3.95-.15-.18.21.24.17.2h0s0,0,0,0h0s0,.04,0,.04v.05s.03.1.03.1l.04.2.07.39.15.78c.1.52.2,1.03.3,1.54.2,1.02.39,2.03.58,3.02.38,1.99.75,3.92,1.1,5.77.02.09-.02.18-.08.23-3.44,2.95-6.55,5.62-9.19,7.89-.05.05-.13.06-.19.04-3.49-1.25-6.34-2.27-8.37-3-.94-.35-1.69-.62-2.25-.83-.51-.19-.77-.3-.75-.31.01-.01.3.07.84.24.58.19,1.35.44,2.31.75,2.03.68,4.87,1.63,8.36,2.8l-.19.04c2.62-2.29,5.7-4.98,9.12-7.96l-.08.23c-.36-1.85-.73-3.78-1.12-5.77-.19-.99-.39-2-.58-3.02-.1-.51-.2-1.02-.3-1.54l-.15-.78-.08-.39-.04-.2-.02-.1v-.05s-.01-.02-.01-.02h0s0-.02,0-.02h0s.32.37.17.19c-4.03-1.4-7.9-2.75-11.43-3.98l.24-.05c-3.44,2.95-6.57,5.64-9.19,7.89l.06-.18c.66,3.62,1.19,6.57,1.57,8.67.17,1,.31,1.79.41,2.39.09.55.13.85.12.86Z"/><path class="cls-3" d="M397.05,69.47s.43,0,1.24-.16c.79-.15,1.98-.51,3.2-1.47,2.37-2.08,5.76-5.05,9.94-8.71,1.04-.88,1.85-2.12,2.24-3.56.19-.72.27-1.48.23-2.24-.05-.76-.25-1.55-.39-2.36-.63-3.22-1.3-6.66-2-10.28-.18-.92-.32-1.81-.73-2.63-.38-.83-.94-1.59-1.63-2.22-.69-.63-1.51-1.13-2.41-1.45-.93-.32-1.87-.65-2.82-.98-1.9-.66-3.83-1.32-5.79-2-.98-.34-1.97-.68-2.96-1.02-1-.38-1.96-.64-3-.63-1.03,0-2.05.23-2.97.66-.94.41-1.69,1.09-2.47,1.78-1.57,1.36-3.11,2.69-4.63,4.01-1.52,1.31-3.01,2.6-4.46,3.87-1.39,1.26-2.19,3.05-2.28,4.83-.07.9.12,1.76.3,2.65.17.88.33,1.75.5,2.61.33,1.72.64,3.38.95,5,.31,1.6.58,3.19.9,4.65.39,1.43,1.2,2.68,2.24,3.55.52.44,1.08.8,1.67,1.07.58.26,1.21.45,1.8.67,1.18.42,2.3.81,3.35,1.18,2.08.74,3.88,1.38,5.36,1.9,1.48.51,2.59.99,3.4,1.13.8.15,1.24.13,1.24.16,0,0-.44.06-1.26-.06-.83-.11-1.96-.57-3.45-1.04-1.49-.5-3.3-1.11-5.39-1.82-1.05-.36-2.17-.74-3.36-1.14-.59-.21-1.21-.39-1.84-.66-.62-.28-1.22-.65-1.77-1.11-1.1-.92-1.97-2.22-2.39-3.73-.34-1.51-.61-3.06-.94-4.67-.31-1.61-.64-3.28-.97-4.99-.17-.86-.34-1.73-.51-2.61-.17-.87-.38-1.81-.31-2.76.09-1.9.94-3.82,2.42-5.17,1.46-1.27,2.95-2.57,4.47-3.88,1.52-1.32,3.06-2.65,4.63-4.01.4-.34.77-.68,1.2-1.02.43-.33.9-.61,1.39-.84.99-.46,2.08-.7,3.19-.7,1.1-.01,2.21.29,3.17.66.99.34,1.98.69,2.96,1.03,1.96.68,3.89,1.35,5.79,2.01.95.33,1.89.66,2.82.98.96.34,1.84.88,2.57,1.56.73.68,1.33,1.49,1.73,2.38.43.88.59,1.86.75,2.75.69,3.62,1.34,7.07,1.96,10.29.14.81.34,1.59.39,2.41.04.81-.06,1.62-.26,2.37-.42,1.51-1.29,2.81-2.39,3.73-4.23,3.61-7.66,6.54-10.06,8.59-1.27.96-2.5,1.29-3.31,1.42-.82.12-1.26.06-1.26.06Z"/><path class="cls-5" d="M311.81,48.65c-1.58,0-3.11-.72-4.11-1.97l-3.49-4.36c-1.17-1.46-1.48-3.46-.8-5.2l2.03-5.2c.68-1.75,2.25-3.01,4.11-3.29l5.52-.85c1.85-.28,3.73.45,4.91,1.91l3.49,4.36c1.17,1.46,1.48,3.46.8,5.2l-2.03,5.2c-.68,1.75-2.25,3.01-4.11,3.29l-5.52.85c-.26.04-.53.06-.79.06ZM315.86,31.72c-.06,0-.13,0-.19.01l-5.52.85c-.45.07-.82.37-.99.79l-2.03,5.2c-.16.42-.09.9.19,1.25l3.49,4.36c.28.35.73.53,1.18.46l5.52-.85c.44-.07.82-.37.99-.79l2.03-5.2c.16-.42.09-.9-.19-1.25l-3.49-4.36c-.24-.3-.61-.47-.99-.47Z"/><path class="cls-1" d="M311.81,48.65c-1.58,0-3.11-.72-4.11-1.97l-3.49-4.36c-1.17-1.46-1.48-3.46-.8-5.2l2.03-5.2c.68-1.75,2.25-3.01,4.11-3.29l5.52-.85c1.85-.28,3.73.45,4.91,1.91l3.49,4.36c1.17,1.46,1.48,3.46.8,5.2l-2.03,5.2c-.68,1.75-2.25,3.01-4.11,3.29l-5.52.85c-.26.04-.53.06-.79.06ZM315.86,31.72c-.06,0-.13,0-.19.01l-5.52.85c-.45.07-.82.37-.99.79l-2.03,5.2c-.16.42-.09.9.19,1.25l3.49,4.36c.28.35.73.53,1.18.46l5.52-.85c.44-.07.82-.37.99-.79l2.03-5.2c.16-.42.09-.9-.19-1.25l-3.49-4.36c-.24-.3-.61-.47-.99-.47Z"/><path class="cls-3" d="M315.86,31.72s.15-.05.43.02c.14.04.31.11.47.25.17.15.3.33.48.53.73.88,1.69,2.02,2.84,3.41.15.18.3.37.46.57.17.23.27.51.28.81.02.3-.1.61-.19.83-.09.25-.19.5-.29.76-.4,1.03-.81,2.13-1.25,3.29-.11.29-.22.58-.34.88-.13.35-.4.66-.75.83-.38.18-.71.17-1.03.23-.33.05-.66.1-.99.15-1.35.2-2.67.43-4.17.63-.43,0-.86-.19-1.14-.51-.22-.28-.45-.56-.67-.83-.43-.54-.86-1.08-1.28-1.61-.42-.53-.83-1.05-1.24-1.55l-.3-.38c-.11-.13-.22-.31-.28-.48-.13-.35-.11-.76.02-1.09.46-1.15.89-2.24,1.3-3.27.2-.51.4-1,.59-1.48.1-.23.16-.48.34-.72.17-.23.39-.4.64-.5,1.92-.35,3.38-.49,4.43-.64,1.04-.13,1.62-.18,1.63-.13,0,.02-.14.04-.41.1-.33.06-.72.14-1.19.23-1.01.2-2.58.42-4.33.78-.18.08-.35.21-.47.38-.11.16-.18.4-.28.64-.18.48-.37.98-.56,1.49-.39,1.03-.81,2.13-1.25,3.29-.1.24-.1.51-.01.75.07.23.31.45.51.72.41.51.82,1.02,1.25,1.55.42.53.85,1.06,1.29,1.6.22.27.43.54.65.81.18.21.47.34.75.33,1.4-.21,2.77-.41,4.09-.61.33-.05.66-.1.99-.15.33-.06.67-.07.88-.18.24-.12.42-.32.51-.56.12-.29.23-.59.35-.87.46-1.15.89-2.24,1.3-3.27.1-.26.2-.51.3-.75.11-.26.19-.45.18-.67,0-.22-.07-.43-.19-.6-.15-.19-.29-.38-.43-.56-1.1-1.43-2.02-2.61-2.71-3.52-.54-.95-1.24-.88-1.22-.92Z"/><path class="cls-3" d="M311.81,48.65s.23-.05.67-.1c.49-.09,1.12-.2,1.91-.33.85-.14,1.86-.31,3.03-.51.6-.1,1.22-.17,1.82-.44.61-.25,1.2-.64,1.7-1.16.51-.52.92-1.17,1.18-1.93.29-.77.6-1.57.92-2.39.54-1.67,1.66-3.38,1.26-5.29-.17-.95-.6-1.82-1.28-2.6-.65-.81-1.32-1.64-2-2.48-.34-.42-.68-.85-1.03-1.28-.34-.44-.68-.82-1.12-1.14-.85-.64-1.92-1.01-3.02-1.01-.54-.01-1.09.12-1.66.19-.56.09-1.12.17-1.67.26-1.1.17-2.18.34-3.25.5-1.01.22-1.92.75-2.6,1.48-.34.36-.62.77-.84,1.21-.21.43-.38.92-.56,1.38-.36.93-.72,1.83-1.07,2.71-.33.89-.75,1.71-.88,2.54-.29,1.71.37,3.29,1.37,4.39.93,1.18,1.77,2.25,2.51,3.19.38.47.69.93,1.05,1.27.36.35.73.62,1.09.82,1.47.79,2.48.65,2.46.73,0,0-.06.02-.17.02-.11,0-.29,0-.51-.01-.44-.04-1.11-.16-1.88-.55-.38-.19-.78-.47-1.17-.82-.39-.36-.72-.81-1.11-1.27-.76-.93-1.62-1.99-2.57-3.15-1.04-1.09-1.81-2.85-1.5-4.69.14-.93.56-1.76.88-2.64.34-.88.69-1.79,1.05-2.71.19-.47.34-.93.57-1.42.23-.48.54-.93.91-1.33.74-.8,1.75-1.39,2.85-1.64,1.1-.19,2.17-.34,3.28-.52.55-.09,1.11-.17,1.67-.26.55-.07,1.12-.21,1.74-.2,1.21,0,2.39.41,3.33,1.11.47.34.88.8,1.21,1.23.34.43.68.86,1.02,1.28.68.85,1.34,1.68,1.99,2.49.7.79,1.21,1.8,1.37,2.83.18,1.03.05,2.07-.32,2.98-.35.88-.68,1.73-1.01,2.55-.33.82-.64,1.62-.94,2.38-.28.79-.74,1.5-1.3,2.05-1.1,1.13-2.57,1.54-3.74,1.63-1.17.16-2.18.3-3.04.42-.84.11-1.48.2-1.93.24-.45.02-.68.02-.68,0Z"/><path class="cls-3" d="M409.24,35.59c.1.09-1.01,1.59-2.57,3.3-1.57,1.71-3.06,2.87-3.15,2.76-.1-.11,1.22-1.43,2.77-3.11,1.55-1.69,2.84-3.04,2.96-2.94Z"/><path class="cls-3" d="M390.48,29.84c.13-.05.82,1.62,1.34,3.78.52,2.16.67,3.96.53,3.98-.15.02-.52-1.72-1.04-3.86-.51-2.13-.97-3.86-.83-3.9Z"/><path class="cls-3" d="M383.03,45.31c-.06.14-1.74-.46-3.84-1.1-2.1-.65-3.82-1.12-3.79-1.26.03-.14,1.82.1,3.95.76,2.13.66,3.75,1.47,3.69,1.6Z"/><path class="cls-3" d="M380.89,62.66c-.11-.09.81-1.37,2.04-2.85,1.24-1.48,2.33-2.61,2.44-2.52.11.09-.81,1.37-2.05,2.85-1.24,1.48-2.33,2.61-2.44,2.52Z"/><path class="cls-3" d="M397.74,68.14c-.14.02-.46-1.42-.7-3.22-.25-1.8-.33-3.28-.19-3.3.14-.02.46,1.43.7,3.23.25,1.8.33,3.27.19,3.3Z"/><path class="cls-3" d="M411.96,55.32c-.05.13-1.37-.25-2.95-.85-1.58-.61-2.82-1.21-2.76-1.34.05-.13,1.37.25,2.95.85,1.58.61,2.81,1.21,2.76,1.34Z"/><rect class="cls-4" x="105.78" y="111.43" width="410.04" height="292.88" rx="14.57" ry="14.57"/><path class="cls-4" d="M89.75,385.39h444.25v7.83c0,9.82-7.97,17.8-17.8,17.8H107.55c-9.82,0-17.8-7.97-17.8-17.8v-7.83h0Z"/><rect class="cls-3" x="116.78" y="123.06" width="386.88" height="247.33"/><polygon class="cls-3" points="270.38 382.64 275.89 392.11 353.46 392.11 358.58 382.64 270.38 382.64"/><path class="cls-9" d="M128.02,131.44h365.19c1.81,0,3.27,1.47,3.27,3.27v231.62c0,1.81-1.47,3.27-3.27,3.27H128.02c-1.81,0-3.27-1.47-3.27-3.27v-231.62c0-1.81,1.47-3.27,3.27-3.27Z"/><polygon class="cls-8" points="496.09 369.95 124.35 369.95 124.75 149.23 496.09 149.23 496.09 369.95"/><path class="cls-3" d="M155.99,140.63c0,1.77-1.37,3.21-3.06,3.21s-3.06-1.44-3.06-3.21,1.37-3.21,3.06-3.21,3.06,1.43,3.06,3.21Z"/><path class="cls-3" d="M137.43,140.63c0,1.77-1.37,3.21-3.06,3.21s-3.06-1.44-3.06-3.21,1.37-3.21,3.06-3.21,3.06,1.43,3.06,3.21Z"/><path class="cls-3" d="M146.97,140.63c0,1.77-1.37,3.21-3.06,3.21s-3.06-1.44-3.06-3.21,1.37-3.21,3.06-3.21,3.06,1.43,3.06,3.21Z"/><path class="cls-3" d="M512.29,382.64c0,.16-91.01.29-203.25.29s-203.27-.13-203.27-.29,90.99-.29,203.27-.29,203.25.13,203.25.29Z"/><path class="cls-5" d="M270.69,191.57c6.12-3.7,12.63-6.5,19.34-8.41l3.98-19.14,32.34-.57,4.65,18.99c6.78,1.67,13.38,4.24,19.63,7.72l16.35-10.72,23.27,22.47-10.13,16.71c3.7,6.12,6.5,12.63,8.4,19.34l19.14,3.98.57,32.34-18.99,4.66c-1.67,6.78-4.24,13.38-7.72,19.62l10.71,16.35-22.47,23.27-16.71-10.13c-6.12,3.7-12.63,6.5-19.34,8.4l-3.98,19.14-32.34.57-4.66-18.99c-6.78-1.67-13.38-4.24-19.62-7.72l-16.35,10.72-23.27-22.47,10.13-16.71c-3.7-6.12-6.5-12.63-8.41-19.34l-19.14-3.98-.57-32.34,18.99-4.66c1.67-6.78,4.24-13.38,7.72-19.62l-10.71-16.35,22.47-23.27,16.71,10.13h0ZM287.93,234.66c-13.31,13.79-12.93,35.76.86,49.07,13.79,13.31,35.76,12.93,49.07-.86,13.31-13.79,12.93-35.76-.86-49.07-13.79-13.31-35.76-12.93-49.07.86Z"/><path class="cls-5" d="M399.9,203.92c.44-2.42,1.21-4.74,2.25-6.91l-4.03-5.4,7.25-8.47,5.96,3.14c1.98-1.37,4.15-2.48,6.48-3.3l.97-6.67,11.12-.87,2,6.43c2.42.44,4.74,1.21,6.91,2.25l5.4-4.03,8.47,7.25-3.14,5.96c1.37,1.98,2.48,4.15,3.3,6.48l6.67.97.87,11.12-6.43,2c-.44,2.42-1.21,4.74-2.25,6.91l4.03,5.4-7.25,8.47-5.96-3.14c-1.98,1.37-4.15,2.48-6.48,3.3l-.97,6.67-11.12.87-2-6.43c-2.42-.44-4.74-1.21-6.91-2.25l-5.4,4.03-8.47-7.25,3.14-5.96c-1.37-1.98-2.48-4.15-3.3-6.48l-6.67-.97-.87-11.12,6.44-2h0ZM414.96,207.29c-.67,7.97,6.27,14.22,13.99,12.88,5.26-.91,9.39-5.36,9.84-10.68.68-7.97-6.27-14.22-14-12.88-5.26.91-9.39,5.36-9.84,10.68Z"/><path class="cls-5" d="M156.37,315.57c.08-2.91.56-5.75,1.39-8.47l-5.67-5.58,6.94-11.18,7.52,2.6c2.07-1.95,4.4-3.64,6.97-5.01l-.06-7.95,12.82-3,3.48,7.15c2.91.09,5.75.56,8.47,1.39l5.58-5.67,11.18,6.94-2.6,7.52c1.95,2.07,3.64,4.4,5.01,6.97l7.95-.06,3,12.81-7.15,3.48c-.09,2.91-.56,5.75-1.39,8.47l5.67,5.58-6.94,11.18-7.52-2.6c-2.07,1.95-4.4,3.64-6.97,5.01l.06,7.95-12.82,3-3.48-7.15c-2.91-.09-5.75-.56-8.47-1.39l-5.58,5.67-11.18-6.94,2.6-7.52c-1.95-2.07-3.64-4.4-5.01-6.97l-7.95.06-3-12.81,7.15-3.48h0ZM174.9,319.18c1.78,7.59,9.38,12.31,16.97,10.53,7.59-1.78,12.31-9.38,10.53-16.97-1.78-7.59-9.38-12.31-16.97-10.53-7.59,1.78-12.3,9.38-10.53,16.97Z"/><path class="cls-9" d="M179.38,208.72c.33-1.83.91-3.58,1.7-5.21l-3.04-4.07,5.46-6.39,4.5,2.37c1.49-1.03,3.13-1.87,4.88-2.49l.73-5.03,8.38-.65,1.5,4.85c1.83.34,3.58.91,5.21,1.7l4.07-3.04,6.39,5.46-2.37,4.5c1.03,1.49,1.87,3.13,2.49,4.88l5.03.73.65,8.38-4.85,1.5c-.34,1.83-.91,3.58-1.7,5.21l3.04,4.07-5.46,6.39-4.5-2.37c-1.49,1.03-3.13,1.87-4.88,2.49l-.73,5.03-8.38.65-1.5-4.85c-1.83-.34-3.58-.91-5.21-1.7l-4.07,3.04-6.39-5.46,2.37-4.5c-1.03-1.49-1.87-3.13-2.49-4.88l-5.03-.73-.65-8.38,4.85-1.5h0ZM190.73,212.79c.39,4.97,4.73,8.68,9.69,8.29,4.97-.39,8.68-4.73,8.29-9.69-.39-4.97-4.73-8.68-9.69-8.29-4.97.39-8.68,4.73-8.29,9.69Z"/><path class="cls-9" d="M400.32,298.97c.29-1.57.78-3.07,1.46-4.48l-2.61-3.5,4.69-5.49,3.86,2.03c1.28-.89,2.69-1.61,4.19-2.14l.63-4.32,7.2-.56,1.29,4.17c1.57.29,3.07.78,4.48,1.46l3.5-2.61,5.49,4.69-2.03,3.86c.88,1.28,1.61,2.69,2.14,4.19l4.32.63.56,7.2-4.17,1.29c-.29,1.57-.78,3.07-1.46,4.48l2.61,3.5-4.69,5.49-3.86-2.03c-1.28.89-2.69,1.61-4.19,2.14l-.63,4.32-7.2.56-1.29-4.17c-1.57-.29-3.07-.78-4.48-1.46l-3.5,2.61-5.49-4.69,2.03-3.86c-.89-1.28-1.61-2.69-2.14-4.19l-4.32-.63-.56-7.2,4.17-1.29h0ZM410.07,302.47c.33,4.27,4.06,7.45,8.33,7.12,4.27-.33,7.45-4.06,7.12-8.33-.33-4.26-4.06-7.45-8.33-7.12-4.27.33-7.45,4.06-7.12,8.33Z"/><path class="cls-6" d="M311.88,309.82h-49.75c-12.85,0-20.88-13.91-14.45-25.04l24.88-43.09,24.88-43.09c6.42-11.13,22.49-11.13,28.91,0l24.88,43.09,24.88,43.09c6.42,11.13-1.61,25.04-14.45,25.04h-49.75Z"/><path class="cls-3" d="M365.43,289.76s.14.26.39.77c.19.53.51,1.35.5,2.48.03,1.12-.25,2.55-1.16,3.93-.46.68-1.07,1.34-1.87,1.87-.8.51-1.79.86-2.86.93-8.48.09-20.72.08-35.86.11-15.14.02-33.17.03-53.18.06-2.5,0-5.03,0-7.6,0-2.7.06-5.26-1.86-6.13-4.44-.46-1.28-.56-2.69-.25-4.03.09-.33.2-.66.3-.98.15-.31.28-.63.44-.93l.96-1.75c1.28-2.35,2.58-4.71,3.88-7.1,5.23-9.55,10.64-19.45,16.18-29.58,5.55-10.13,10.96-20.03,16.19-29.58,2.62-4.78,5.19-9.47,7.7-14.06.64-1.15,1.23-2.29,1.91-3.42.68-1.14,1.65-2.13,2.8-2.78,2.29-1.34,5.19-1.43,7.52-.34,1.17.54,2.21,1.35,2.97,2.38.75,1.05,1.27,2.14,1.87,3.21,1.17,2.14,2.32,4.25,3.46,6.33,2.27,4.16,4.48,8.2,6.61,12.11,4.26,7.81,8.23,15.09,11.86,21.74,7.23,13.29,13.09,24.04,17.14,31.49,2.01,3.71,3.57,6.6,4.64,8.57.52.97.92,1.72,1.19,2.24.27.51.39.77.39.77,0,0-.16-.25-.44-.74-.29-.51-.7-1.25-1.24-2.21-1.09-1.96-2.68-4.83-4.72-8.53-4.09-7.43-9.99-18.16-17.28-31.41-3.64-6.64-7.63-13.9-11.91-21.71-2.14-3.9-4.35-7.94-6.63-12.1-1.14-2.08-2.3-4.19-3.47-6.33-.6-1.06-1.14-2.19-1.84-3.14-.72-.96-1.7-1.72-2.8-2.23-2.2-1.03-4.93-.93-7.08.32-1.08.61-1.98,1.54-2.62,2.61-.65,1.09-1.26,2.27-1.89,3.41-2.51,4.6-5.08,9.29-7.69,14.07-5.23,9.56-10.64,19.45-16.18,29.59-5.55,10.13-10.96,20.02-16.19,29.57-1.31,2.39-2.6,4.75-3.89,7.1-.61,1.19-1.4,2.29-1.66,3.54-.28,1.24-.19,2.56.23,3.74.81,2.4,3.17,4.16,5.66,4.12,2.56,0,5.1,0,7.6,0,20.01.02,38.04.04,53.18.06,15.13.02,27.37.04,35.85.05,1.04-.06,1.99-.4,2.78-.88.78-.5,1.38-1.15,1.84-1.8.91-1.34,1.2-2.74,1.19-3.84-.04-2.24-.88-3.24-.79-3.26Z"/><path class="cls-7" d="M303.82,280.55c0-4.41,3.51-7.7,8.53-7.7s8.45,3.29,8.45,7.7-3.44,7.85-8.45,7.85-8.53-3.51-8.53-7.85ZM303.9,235.38h16.9l-2.84,33.28h-11.29l-2.77-33.28Z"/><path class="cls-7" d="M314.26,193.66c-.04.11-1.16-.56-3.17-.65-1.97-.12-4.81.53-7.21,2.41-2.4,1.89-3.86,4.34-4.77,6.12-.91,1.8-1.33,2.99-1.41,2.96-.03-.01.04-.32.21-.86.17-.54.45-1.32.87-2.25.83-1.84,2.28-4.4,4.78-6.37,2.51-1.97,5.51-2.59,7.56-2.37,1.03.1,1.84.34,2.37.58.53.23.79.41.78.44Z"/><path class="cls-7" d="M293.46,211.94c-.12-.07.37-1.13,1.09-2.36.73-1.23,1.42-2.17,1.54-2.1.12.07-.37,1.13-1.1,2.36-.73,1.23-1.42,2.17-1.54,2.1Z"/><g class="cls-11"><polygon class="cls-7" points="336.83 216.8 259.35 264.55 249.29 281.98 342.3 226.28 336.83 216.8"/></g><g class="cls-11"><path class="cls-7" d="M349.03,237.96l-102.7,60.58c.29,1.38,1.22,3.15,2.23,4.32l102.29-61.75-1.82-3.15Z"/></g></g></svg>