<?xml version="1.0" encoding="UTF-8"?><svg id="Layer_2" xmlns="http://www.w3.org/2000/svg" viewBox="0 0 448.5 401.06"><defs><style>.cls-1{opacity:.7;}.cls-1,.cls-2,.cls-3,.cls-4,.cls-5,.cls-6,.cls-7,.cls-8,.cls-9,.cls-10,.cls-11,.cls-12,.cls-13,.cls-14,.cls-15{stroke-width:0px;}.cls-1,.cls-15{fill:#f5f5f5;}.cls-16,.cls-2{opacity:.1;}.cls-17,.cls-18{fill:none;stroke:#fff;stroke-linecap:round;stroke-miterlimit:10;}.cls-18{stroke-width:1.03px;}.cls-4{fill:#263238;}.cls-5{fill:#28a6dd;}.cls-6{fill:#455a64;}.cls-7{fill:#37474f;}.cls-8{fill:#1db0d8;}.cls-9{fill:#e0e0e0;}.cls-10{fill:#fff;}.cls-11{fill:#fafafa;}.cls-12{fill:#ebebeb;}.cls-13{fill:#f0f0f0;}.cls-14{fill:#e6e6e6;}</style></defs><g id="Resumes"><path id="Floor" class="cls-1" d="M65.68,368.16c87.58,43.87,229.56,43.87,317.14,0,87.58-43.87,87.58-115,0-158.87-87.58-43.87-229.56-43.87-317.14,0-87.57,43.87-87.57,115,0,158.87Z"/><g id="Cabinet"><polygon class="cls-9" points="376.11 217.85 340.98 197.57 340.98 122.25 376.11 142.53 376.11 217.85"/><polygon class="cls-12" points="376.11 142.53 426.29 113.55 426.29 188.88 376.11 217.85 376.11 142.53"/><polygon class="cls-15" points="426.29 113.55 376.11 142.53 340.98 122.25 391.16 93.27 426.29 113.55"/><polygon class="cls-14" points="381.12 145.42 421.27 122.25 422.19 122.78 422.19 150.68 382.05 173.86 381.12 173.32 381.12 145.42"/><path class="cls-14" d="M397.78,141.6l6.83-3.94c.89-.51,1.6-.28,1.6.52s-.72,1.86-1.6,2.38l-6.83,3.94c-.89.51-1.6.28-1.6-.52,0-.8.72-1.86,1.61-2.38Z"/><polygon class="cls-9" points="380.2 180.73 420.35 157.55 420.34 185.45 421.27 185.99 381.12 209.16 380.2 208.63 380.2 180.73"/><polygon class="cls-15" points="381.12 181.26 421.27 158.08 421.27 185.99 381.12 209.16 381.12 181.26"/><path class="cls-14" d="M396.86,176.9l6.83-3.94c.89-.51,1.6-.28,1.6.52s-.72,1.86-1.6,2.38l-6.83,3.94c-.89.51-1.6.28-1.6-.52,0-.8.72-1.86,1.61-2.38Z"/><polygon class="cls-9" points="381.12 145.42 421.27 122.24 421.27 150.15 381.12 173.32 381.12 145.42"/><polygon class="cls-14" points="441.34 136.03 419.37 123.35 419.37 147.93 441.34 160.61 441.34 136.03"/><polygon class="cls-12" points="396.18 177.29 396.18 142.53 404.79 137.54 406.21 139.63 431.31 125.14 431.31 157.01 396.18 177.29"/><polygon class="cls-11" points="396.18 177.29 398.69 146.87 433.81 126.59 431.31 157.01 396.18 177.29"/><polygon class="cls-14" points="401.2 159.21 382.04 148.15 382.04 172.73 401.2 183.79 401.2 159.21"/><polygon class="cls-15" points="401.2 157.01 441.34 133.83 441.34 161.73 401.2 184.91 401.2 157.01"/><path class="cls-14" d="M416.93,152.65l6.83-3.94c.89-.51,1.6-.28,1.6.52s-.72,1.86-1.6,2.38l-6.83,3.94c-.89.51-1.6.28-1.6-.52,0-.8.72-1.86,1.61-2.38Z"/><polygon class="cls-9" points="401.2 157.01 399.86 156.24 399.86 184.14 401.2 184.91 401.2 157.01"/><polygon class="cls-13" points="399.86 156.24 440 133.06 441.34 133.83 401.2 157.01 399.86 156.24"/></g><g id="Plant"><path class="cls-5" d="M352.88,223.91c.23-5.78,4.78-17.94,11.08-25.2,6.3-7.26,16.17-11.83,22.77-9.27,6.15,2.38,5.14,10.54-2.64,15.65s-19.43,11.47-23.13,20.7l-7.44,11.21-.64-13.1Z"/><path class="cls-2" d="M352.88,223.91c.23-5.78,4.78-17.94,11.08-25.2,6.3-7.26,16.17-11.83,22.77-9.27,6.15,2.38,5.14,10.54-2.64,15.65s-19.43,11.47-23.13,20.7l-7.44,11.21-.64-13.1Z"/><path class="cls-18" d="M384.3,192.26c-7.48,1.74-29,16.83-31.03,38.42"/><path class="cls-8" d="M354.78,246.85c.34-5.97,5.46-10.33,12.19-14.27,7.99-4.68,14.9-6.79,17.33-11.41,2.43-4.61-1.92-9.82-10.18-7.06-6.97,2.33-20.5,14.32-20.6,22.9l1.26,9.84Z"/><path class="cls-17" d="M379.08,217.76c-11.05,2.53-23.4,12.58-25.06,23.11"/></g><g id="Folder"><polygon class="cls-4" points="45.79 155.79 45.79 329.58 223.66 226.88 223.66 68.89 91.4 145.25 86.84 132.09 45.79 155.79"/><polygon class="cls-10" points="45.79 329.58 54.91 171.58 232.78 68.89 223.66 226.88 45.79 329.58"/><polygon class="cls-7" points="45.79 329.58 59.47 174.22 237.34 71.52 223.66 226.88 45.79 329.58"/></g><g id="Folder-2"><polygon class="cls-8" points="93.32 189.55 93.32 363.34 271.19 260.65 271.19 102.65 138.92 179.02 134.36 165.85 93.32 189.55"/><g class="cls-16"><polygon class="cls-3" points="93.32 189.55 93.32 363.34 271.19 260.65 271.19 102.65 138.92 179.02 134.36 165.85 93.32 189.55"/></g><g id="Document"><path class="cls-12" d="M157.91,302.63c-1.02-.59-1.84-2.08-1.84-3.33V82.5c0-1.25.88-2.78,1.96-3.4L294.18.49c1.09-.63,2.79-.66,3.81-.07,1.02.59,1.84,2.08,1.84,3.33v216.8c0,1.25-.88,2.78-1.96,3.4l-136.15,78.61c-1.09.63-2.79.66-3.81.07Z"/><path class="cls-12" d="M159.75,86.62l55.3-36.18-3.69-2.13-53.33,30.79c-1.09.63-1.96,2.15-1.96,3.4v1.99l3.68,2.13Z"/><path class="cls-9" d="M178.18,93l-21.54-12.44c-.36.62-.58,1.31-.58,1.94v216.8c0,1.25.83,2.75,1.84,3.33,1.02.59,2.72.56,3.81-.07l16.47-9.51V93Z"/><path class="cls-14" d="M161.72,302.56l136.15-78.61c1.09-.63,1.96-2.15,1.96-3.4V3.75c0-1.25-.88-1.76-1.97-1.13l-136.15,78.61c-1.09.63-1.96,2.15-1.96,3.4v216.8c0,1.25.88,1.76,1.97,1.13Z"/><path class="cls-15" d="M171.05,134.7l32.69-18.87c2.17-1.25,3.93-.36,3.93,1.99,0,2.35-1.76,5.27-3.93,6.53l-32.69,18.87c-2.17,1.25-3.93.36-3.93-1.99s1.76-5.27,3.93-6.53Z"/><path class="cls-11" d="M168.69,169.21l4.23-2.44c.87-.5,1.57-.09,1.57.91v4.88c0,1-.7,2.22-1.57,2.72l-4.23,2.44c-.87.5-1.57.1-1.57-.91v-4.88c0-1,.7-2.22,1.57-2.72Z"/><path class="cls-15" d="M180.15,164.73l25.56-14.76c1.09-.63,1.96-.18,1.96.99s-.88,2.64-1.96,3.26l-25.56,14.76c-1.09.63-1.96.18-1.96-.99,0-1.18.88-2.64,1.96-3.26Z"/><path class="cls-11" d="M168.69,186.24l4.23-2.44c.87-.5,1.57-.09,1.57.91v4.88c0,1-.7,2.22-1.57,2.72l-4.23,2.44c-.87.5-1.57.09-1.57-.91v-4.88c0-1,.7-2.22,1.57-2.72Z"/><path class="cls-15" d="M180.15,181.75l25.56-14.76c1.09-.63,1.96-.18,1.96.99s-.88,2.64-1.96,3.26l-25.56,14.76c-1.09.63-1.96.18-1.96-.99,0-1.18.88-2.64,1.96-3.26Z"/><path class="cls-11" d="M168.69,203.26l4.23-2.44c.87-.5,1.57-.09,1.57.91v4.88c0,1-.7,2.22-1.57,2.72l-4.23,2.44c-.87.5-1.57.09-1.57-.91v-4.88c0-1,.7-2.22,1.57-2.72Z"/><path class="cls-15" d="M180.15,198.78l25.56-14.76c1.09-.63,1.96-.18,1.96.99s-.88,2.64-1.96,3.26l-25.56,14.76c-1.09.63-1.96.18-1.96-.99,0-1.18.88-2.64,1.96-3.26Z"/><path class="cls-11" d="M168.69,220.33l4.23-2.44c.87-.5,1.57-.09,1.57.91v4.88c0,1-.7,2.22-1.57,2.72l-4.23,2.44c-.87.5-1.57.09-1.57-.91v-4.88c0-1,.7-2.22,1.57-2.72Z"/><path class="cls-15" d="M180.15,215.85l25.56-14.76c1.09-.63,1.96-.18,1.96.99s-.88,2.64-1.96,3.26l-25.56,14.76c-1.09.63-1.96.18-1.96-.99,0-1.18.88-2.64,1.96-3.26Z"/><path class="cls-15" d="M169.09,255.93l18.19-10.5c1.09-.63,1.96-.18,1.96.99s-.88,2.64-1.96,3.26l-18.19,10.5c-1.09.63-1.96.18-1.96-.99s.88-2.64,1.96-3.26Z"/><path class="cls-13" d="M169.09,264.44l36.62-21.14c1.09-.63,1.96-.18,1.96.99,0,1.18-.88,2.64-1.96,3.26l-36.62,21.14c-1.09.63-1.96.18-1.96-.99,0-1.18.88-2.64,1.96-3.26Z"/><path class="cls-11" d="M169.09,264.44l25.56-14.76c1.09-.63,1.96-.18,1.96.99,0,1.18-.88,2.64-1.97,3.26l-25.56,14.76c-1.09.63-1.96.18-1.96-.99,0-1.18.88-2.64,1.96-3.26Z"/><path class="cls-15" d="M169.09,272.95l18.19-10.5c1.09-.63,1.96-.18,1.96.99s-.88,2.64-1.96,3.26l-18.19,10.5c-1.09.63-1.96.18-1.96-.99s.88-2.64,1.96-3.26Z"/><path class="cls-15" d="M169.09,238.91l18.19-10.5c1.09-.63,1.96-.18,1.96.99s-.88,2.64-1.96,3.26l-18.19,10.5c-1.09.63-1.96.18-1.96-.99s.88-2.64,1.96-3.26Z"/><path class="cls-13" d="M169.09,247.43l36.62-21.14c1.09-.63,1.96-.18,1.96.99,0,1.18-.88,2.64-1.96,3.26l-36.62,21.14c-1.09.63-1.96.18-1.96-.99,0-1.18.88-2.64,1.96-3.26Z"/><path class="cls-11" d="M169.09,247.43l12.98-7.5c1.09-.63,1.96-.18,1.96.99,0,1.18-.88,2.64-1.97,3.26l-12.98,7.5c-1.09.63-1.96.18-1.96-.99,0-1.18.88-2.64,1.96-3.26Z"/><path class="cls-13" d="M169.09,281.46l36.62-21.14c1.09-.63,1.96-.18,1.96.99,0,1.18-.88,2.64-1.96,3.26l-36.62,21.14c-1.09.63-1.96.18-1.96-.99,0-1.18.88-2.64,1.96-3.26Z"/><path class="cls-11" d="M169.09,281.46l32.93-19.01c1.09-.63,1.96-.18,1.96.99,0,1.18-.88,2.64-1.97,3.26l-32.93,19.01c-1.09.63-1.96.18-1.96-.99,0-1.18.88-2.64,1.96-3.26Z"/><path class="cls-15" d="M297.86,2.62l-82.82,47.82v221.34l82.82-47.82c1.09-.63,1.96-2.15,1.96-3.4V3.75c0-1.25-.88-1.76-1.97-1.13Z"/><polygon class="cls-12" points="215.04 58.95 215.04 75.97 207.67 84.49 215.04 84.49 215.04 101.51 292.45 56.82 292.45 14.25 215.04 58.95"/><path class="cls-11" d="M225.17,59.54l31.36-18.11c1.52-.88,2.75-.17,2.75,1.59v.03c0,1.75-1.23,3.89-2.75,4.76l-31.36,18.11c-1.52.88-2.75.17-2.75-1.59v-.03c0-1.75,1.23-3.89,2.75-4.76Z"/><path class="cls-11" d="M223.4,73.28l60.7-35.05c.54-.31.98-.09.98.5s-.44,1.32-.98,1.63l-60.7,35.05c-.54.31-.98.09-.98-.5s.44-1.32.98-1.63Z"/><path class="cls-11" d="M223.4,79.66l60.7-35.05c.54-.31.98-.09.98.5s-.44,1.32-.98,1.63l-60.7,35.05c-.54.31-.98.09-.98-.5s.44-1.32.98-1.63Z"/><path class="cls-11" d="M223.4,86.05l60.7-35.05c.54-.31.98-.09.98.5s-.44,1.32-.98,1.63l-60.7,35.05c-.54.31-.98.09-.98-.5s.44-1.32.98-1.63Z"/><path class="cls-10" d="M225.69,103.9l4.23-2.44c.87-.5,1.57-.09,1.57.91v4.88c0,1-.7,2.22-1.57,2.72l-4.23,2.44c-.87.5-1.57.09-1.57-.91v-4.88c0-1,.7-2.22,1.57-2.72Z"/><path class="cls-9" d="M237.14,99.42l25.56-14.76c1.09-.63,1.96-.18,1.96.99s-.88,2.64-1.96,3.26l-25.56,14.76c-1.09.63-1.96.18-1.96-.99s.88-2.64,1.96-3.26Z"/><path class="cls-9" d="M225.1,119.15l64.39-37.18c.54-.31.98-.09.98.5s-.44,1.32-.98,1.63l-64.39,37.18c-.54.31-.98.09-.98-.5s.44-1.32.98-1.63Z"/><path class="cls-9" d="M225.1,125.53l64.39-37.18c.54-.31.98-.09.98.5s-.44,1.32-.98,1.63l-64.39,37.18c-.54.31-.98.09-.98-.5s.44-1.32.98-1.63Z"/><path class="cls-9" d="M225.1,131.92l64.39-37.18c.54-.31.98-.09.98.5s-.44,1.32-.98,1.63l-64.39,37.18c-.54.31-.98.09-.98-.5s.44-1.32.98-1.63Z"/><path class="cls-9" d="M225.1,138.32l64.39-37.18c.54-.31.98-.09.98.5s-.44,1.32-.98,1.63l-64.39,37.18c-.54.31-.98.09-.98-.5s.44-1.32.98-1.63Z"/><path class="cls-10" d="M225.69,150.72l4.23-2.44c.87-.5,1.57-.1,1.57.91v4.88c0,1-.7,2.22-1.57,2.72l-4.23,2.44c-.87.5-1.57.09-1.57-.91v-4.88c0-1,.7-2.22,1.57-2.72Z"/><path class="cls-9" d="M237.14,146.24l25.56-14.76c1.09-.63,1.96-.18,1.96.99s-.88,2.64-1.96,3.26l-25.56,14.76c-1.09.63-1.96.18-1.96-.99s.88-2.64,1.96-3.26Z"/><path class="cls-9" d="M225.1,165.97l64.39-37.18c.54-.31.98-.09.98.5s-.44,1.32-.98,1.63l-64.39,37.18c-.54.31-.98.09-.98-.5s.44-1.32.98-1.63Z"/><path class="cls-9" d="M225.1,172.36l64.39-37.18c.54-.31.98-.09.98.5s-.44,1.32-.98,1.63l-64.39,37.18c-.54.31-.98.09-.98-.5s.44-1.32.98-1.63Z"/><path class="cls-9" d="M225.1,178.74l64.39-37.18c.54-.31.98-.09.98.5s-.44,1.32-.98,1.63l-64.39,37.18c-.54.31-.98.09-.98-.5s.44-1.32.98-1.63Z"/><path class="cls-9" d="M225.1,185.14l64.39-37.18c.54-.31.98-.09.98.5s-.44,1.32-.98,1.63l-64.39,37.18c-.54.31-.98.09-.98-.5s.44-1.32.98-1.63Z"/><path class="cls-10" d="M231.71,194.48l4.23-2.44c.87-.5,1.57-.1,1.57.91v4.88c0,1-.7,2.22-1.57,2.72l-4.23,2.44c-.87.5-1.57.09-1.57-.91v-4.88c0-1,.7-2.22,1.57-2.72Z"/><path class="cls-9" d="M225.1,211.07l17.45-10.07c.54-.31.98-.09.98.5s-.44,1.32-.98,1.63l-17.45,10.07c-.54.31-.98.09-.98-.5s.44-1.32.98-1.63Z"/><path class="cls-10" d="M255.18,180.92l4.23-2.44c.87-.5,1.57-.09,1.57.91v4.88c0,1-.7,2.22-1.57,2.72l-4.23,2.44c-.87.5-1.57.1-1.57-.91v-4.88c0-1,.7-2.22,1.57-2.72Z"/><path class="cls-9" d="M248.57,197.51l17.45-10.07c.54-.31.98-.09.98.5s-.44,1.32-.98,1.63l-17.45,10.07c-.54.31-.98.09-.98-.5s.44-1.32.98-1.63Z"/><path class="cls-10" d="M278.65,167.36l4.23-2.44c.87-.5,1.57-.09,1.57.91v4.88c0,1-.7,2.22-1.57,2.72l-4.23,2.44c-.87.5-1.57.09-1.57-.91v-4.88c0-1,.7-2.22,1.57-2.72Z"/><path class="cls-9" d="M272.04,183.94l17.45-10.07c.54-.31.98-.09.98.5s-.44,1.32-.98,1.63l-17.45,10.07c-.54.31-.98.09-.98-.5s.44-1.32.98-1.63Z"/><path class="cls-9" d="M225.1,215.22l17.45-10.07c.54-.31.98-.09.98.5s-.44,1.32-.98,1.63l-17.45,10.07c-.54.31-.98.09-.98-.5s.44-1.32.98-1.63Z"/><path class="cls-9" d="M248.57,201.66l17.45-10.07c.54-.31.98-.09.98.5s-.44,1.32-.98,1.63l-17.45,10.07c-.54.31-.98.09-.98-.5s.44-1.32.98-1.63Z"/><path class="cls-9" d="M272.04,188.1l17.45-10.07c.54-.31.98-.09.98.5s-.44,1.32-.98,1.63l-17.45,10.07c-.54.31-.98.09-.98-.5s.44-1.32.98-1.63Z"/><path class="cls-9" d="M225.1,219.38l17.45-10.07c.54-.31.98-.09.98.5s-.44,1.32-.98,1.63l-17.45,10.07c-.54.31-.98.09-.98-.5s.44-1.32.98-1.63Z"/><path class="cls-9" d="M248.57,205.82l17.45-10.07c.54-.31.98-.09.98.5s-.44,1.32-.98,1.63l-17.45,10.07c-.54.31-.98.09-.98-.5s.44-1.32.98-1.63Z"/><path class="cls-9" d="M272.04,192.26l17.45-10.07c.54-.31.98-.09.98.5s-.44,1.32-.98,1.63l-17.45,10.07c-.54.31-.98.09-.98-.5s.44-1.32.98-1.63Z"/><path class="cls-10" d="M231.71,229.43l4.23-2.44c.87-.5,1.57-.09,1.57.91v4.88c0,1-.7,2.22-1.57,2.72l-4.23,2.44c-.87.5-1.57.09-1.57-.91v-4.88c0-1,.7-2.22,1.57-2.72Z"/><path class="cls-9" d="M225.1,246.02l17.45-10.07c.54-.31.98-.09.98.5s-.44,1.32-.98,1.63l-17.45,10.07c-.54.31-.98.09-.98-.5s.44-1.32.98-1.63Z"/><path class="cls-10" d="M255.18,215.87l4.23-2.44c.87-.5,1.57-.09,1.57.91v4.88c0,1-.7,2.22-1.57,2.72l-4.23,2.44c-.87.5-1.57.09-1.57-.91v-4.88c0-1,.7-2.22,1.57-2.72Z"/><path class="cls-9" d="M248.57,232.46l17.45-10.07c.54-.31.98-.09.98.5s-.44,1.32-.98,1.63l-17.45,10.07c-.54.31-.98.09-.98-.5s.44-1.32.98-1.63Z"/><path class="cls-10" d="M278.65,202.31l4.23-2.44c.87-.5,1.57-.09,1.57.91v4.88c0,1-.7,2.22-1.57,2.72l-4.23,2.44c-.87.5-1.57.09-1.57-.91v-4.88c0-1,.7-2.22,1.57-2.72Z"/><path class="cls-9" d="M272.04,218.9l17.45-10.07c.54-.31.98-.09.98.5s-.44,1.32-.98,1.63l-17.45,10.07c-.54.31-.98.09-.98-.5s.44-1.32.98-1.63Z"/><path class="cls-9" d="M225.1,250.18l17.45-10.07c.54-.31.98-.09.98.5s-.44,1.32-.98,1.63l-17.45,10.07c-.54.31-.98.09-.98-.5s.44-1.32.98-1.63Z"/><path class="cls-9" d="M248.57,236.62l17.45-10.07c.54-.31.98-.09.98.5s-.44,1.32-.98,1.63l-17.45,10.07c-.54.31-.98.09-.98-.5s.44-1.32.98-1.63Z"/><path class="cls-9" d="M272.04,223.06l17.45-10.07c.54-.31.98-.09.98.5s-.44,1.32-.98,1.63l-17.45,10.07c-.54.31-.98.09-.98-.5s.44-1.32.98-1.63Z"/><path class="cls-9" d="M225.1,254.33l17.45-10.07c.54-.31.98-.09.98.5s-.44,1.32-.98,1.63l-17.45,10.07c-.54.31-.98.09-.98-.5s.44-1.32.98-1.63Z"/><path class="cls-9" d="M248.57,240.77l17.45-10.07c.54-.31.98-.09.98.5s-.44,1.32-.98,1.63l-17.45,10.07c-.54.31-.98.09-.98-.5s.44-1.32.98-1.63Z"/><path class="cls-9" d="M272.04,227.21l17.45-10.07c.54-.31.98-.09.98.5s-.44,1.32-.98,1.63l-17.45,10.07c-.54.31-.98.09-.98-.5s.44-1.32.98-1.63Z"/><path class="cls-11" d="M185.55,76.03c10.2-5.89,18.47-1.12,18.47,10.67s-8.27,26.11-18.47,32c-10.2,5.89-18.47,1.12-18.47-10.67s8.27-26.11,18.47-32Z"/><path class="cls-9" d="M185.55,85.3c3.31-1.91,5.99-.36,5.99,3.46s-2.68,8.47-5.99,10.38c-3.31,1.91-5.99.36-5.99-3.46s2.68-8.47,5.99-10.38Z"/><path class="cls-9" d="M197.24,105.68c0-6.28-4.41-8.83-9.85-5.69l-3.4,1.96c-5.44,3.14-9.85,10.78-9.85,17.06v1.69c3.14,1.04,7.1.48,11.41-2.01,4.43-2.56,8.5-6.71,11.68-11.56v-1.46Z"/><path class="cls-15" d="M174.62,149.04l25.56-14.76c1.09-.63,1.96-.18,1.96.99s-.88,2.64-1.96,3.26l-25.56,14.76c-1.09.63-1.96.18-1.96-.99,0-1.18.88-2.64,1.96-3.26Z"/></g><polygon class="cls-8" points="93.32 363.34 125.81 222.63 303.68 119.93 271.19 260.65 93.32 363.34"/><polygon class="cls-2" points="182.68 311.75 182.68 189.79 303.21 120.54 271.19 260.65 182.68 311.75"/></g><polygon id="Shadow" class="cls-9" points="213.33 329.45 182.68 311.75 239.76 279.04 213.33 329.45"/><g id="Document-2"><path class="cls-12" d="M213.33,329.45c-1.02-.59-1.84-2.08-1.84-3.33V109.31c0-1.25.88-2.78,1.96-3.4L349.6,27.31c1.09-.63,2.79-.66,3.81-.07s1.84,2.08,1.84,3.33v216.8c0,1.25-.88,2.78-1.96,3.4l-136.15,78.61c-1.09.63-2.79.66-3.81.07Z"/><path class="cls-6" d="M215.17,113.43l55.3-36.18-3.69-2.13-53.33,30.79c-1.09.63-1.96,2.15-1.96,3.4v1.99l3.68,2.13Z"/><path class="cls-4" d="M233.6,119.82l-21.54-12.44c-.36.62-.58,1.31-.58,1.94v216.8c0,1.25.83,2.75,1.84,3.33s2.72.56,3.81-.07l16.47-9.51V119.82Z"/><path class="cls-7" d="M217.14,329.38l136.15-78.61c1.09-.63,1.96-2.15,1.96-3.4V30.57c0-1.25-.88-1.76-1.97-1.13l-136.15,78.61c-1.09.63-1.96,2.15-1.96,3.4v216.8c0,1.25.88,1.76,1.97,1.13Z"/><path class="cls-9" d="M226.47,161.52l32.69-18.87c2.17-1.25,3.93-.36,3.93,1.99,0,2.35-1.76,5.27-3.93,6.53l-32.69,18.87c-2.17,1.25-3.93.36-3.93-1.99s1.76-5.27,3.93-6.53Z"/><path class="cls-8" d="M224.12,196.02l4.23-2.44c.87-.5,1.57-.09,1.57.91v4.88c0,1-.7,2.22-1.57,2.72l-4.23,2.44c-.87.5-1.57.09-1.57-.91v-4.88c0-1,.7-2.22,1.57-2.72Z"/><path class="cls-9" d="M235.57,191.54l25.56-14.76c1.09-.63,1.96-.18,1.96.99s-.88,2.64-1.96,3.26l-25.56,14.76c-1.09.63-1.96.18-1.96-.99,0-1.18.88-2.64,1.96-3.26Z"/><path class="cls-8" d="M224.12,213.05l4.23-2.44c.87-.5,1.57-.09,1.57.91v4.88c0,1-.7,2.22-1.57,2.72l-4.23,2.44c-.87.5-1.57.1-1.57-.91v-4.88c0-1,.7-2.22,1.57-2.72Z"/><path class="cls-9" d="M235.57,208.57l25.56-14.76c1.09-.63,1.96-.18,1.96.99s-.88,2.64-1.96,3.26l-25.56,14.76c-1.09.63-1.96.18-1.96-.99,0-1.18.88-2.64,1.96-3.26Z"/><path class="cls-8" d="M224.12,230.08l4.23-2.44c.87-.5,1.57-.09,1.57.91v4.88c0,1-.7,2.22-1.57,2.72l-4.23,2.44c-.87.5-1.57.09-1.57-.91v-4.88c0-1,.7-2.22,1.57-2.72Z"/><path class="cls-9" d="M235.57,225.59l25.56-14.76c1.09-.63,1.96-.18,1.96.99s-.88,2.64-1.96,3.26l-25.56,14.76c-1.09.63-1.96.18-1.96-.99,0-1.18.88-2.64,1.96-3.26Z"/><path class="cls-8" d="M224.12,247.15l4.23-2.44c.87-.5,1.57-.09,1.57.91v4.88c0,1-.7,2.22-1.57,2.72l-4.23,2.44c-.87.5-1.57.09-1.57-.91v-4.88c0-1,.7-2.22,1.57-2.72Z"/><path class="cls-9" d="M235.57,242.66l25.56-14.76c1.09-.63,1.96-.18,1.96.99s-.88,2.64-1.96,3.26l-25.56,14.76c-1.09.63-1.96.18-1.96-.99,0-1.18.88-2.64,1.96-3.26Z"/><path class="cls-9" d="M224.51,282.75l18.19-10.5c1.09-.63,1.96-.18,1.96.99s-.88,2.64-1.96,3.26l-18.19,10.5c-1.09.63-1.96.18-1.96-.99s.88-2.64,1.96-3.26Z"/><path class="cls-11" d="M224.51,291.26l36.62-21.14c1.09-.63,1.96-.18,1.96.99,0,1.18-.88,2.64-1.96,3.26l-36.62,21.14c-1.09.63-1.96.18-1.96-.99,0-1.18.88-2.64,1.96-3.26Z"/><path class="cls-8" d="M224.51,291.26l25.56-14.76c1.09-.63,1.96-.18,1.96.99,0,1.18-.88,2.64-1.97,3.26l-25.56,14.76c-1.09.63-1.96.18-1.96-.99,0-1.18.88-2.64,1.96-3.26Z"/><path class="cls-9" d="M224.51,299.76l18.19-10.5c1.09-.63,1.96-.18,1.96.99s-.88,2.64-1.96,3.26l-18.19,10.5c-1.09.63-1.96.18-1.96-.99s.88-2.64,1.96-3.26Z"/><path class="cls-9" d="M224.51,265.73l18.19-10.5c1.09-.63,1.96-.18,1.96.99s-.88,2.64-1.96,3.26l-18.19,10.5c-1.09.63-1.96.18-1.96-.99s.88-2.64,1.96-3.26Z"/><path class="cls-11" d="M224.51,274.24l36.62-21.14c1.09-.63,1.96-.18,1.96.99,0,1.18-.88,2.64-1.96,3.26l-36.62,21.14c-1.09.63-1.96.18-1.96-.99,0-1.18.88-2.64,1.96-3.26Z"/><path class="cls-8" d="M224.51,274.24l12.98-7.5c1.09-.63,1.96-.18,1.96.99,0,1.18-.88,2.64-1.97,3.26l-12.98,7.5c-1.09.63-1.96.18-1.96-.99,0-1.18.88-2.64,1.96-3.26Z"/><path class="cls-11" d="M224.51,308.27l36.62-21.14c1.09-.63,1.96-.18,1.96.99,0,1.18-.88,2.64-1.96,3.26l-36.62,21.14c-1.09.63-1.96.18-1.96-.99,0-1.18.88-2.64,1.96-3.26Z"/><path class="cls-8" d="M224.51,308.27l32.93-19.01c1.09-.63,1.96-.18,1.96.99,0,1.18-.88,2.64-1.97,3.26l-32.93,19.01c-1.09.63-1.96.18-1.96-.99,0-1.18.88-2.64,1.96-3.26Z"/><path class="cls-11" d="M353.29,29.43l-82.82,47.82v221.34l82.82-47.82c1.09-.63,1.96-2.15,1.96-3.4V30.57c0-1.25-.88-1.76-1.97-1.13Z"/><polygon class="cls-8" points="270.47 85.76 270.47 102.79 263.09 111.3 270.47 111.3 270.47 128.33 347.88 83.63 347.88 41.07 270.47 85.76"/><path class="cls-11" d="M280.59,86.36l31.36-18.11c1.52-.88,2.75-.17,2.75,1.59v.03c0,1.75-1.23,3.89-2.75,4.76l-31.36,18.11c-1.52.88-2.75.17-2.75-1.59v-.03c0-1.75,1.23-3.89,2.75-4.76Z"/><path class="cls-11" d="M278.82,100.09l60.7-35.05c.54-.31.98-.09.98.5s-.44,1.32-.98,1.63l-60.7,35.05c-.54.31-.98.09-.98-.5s.44-1.32.98-1.63Z"/><path class="cls-11" d="M278.82,106.48l60.7-35.05c.54-.31.98-.09.98.5s-.44,1.32-.98,1.63l-60.7,35.05c-.54.31-.98.09-.98-.5s.44-1.32.98-1.63Z"/><path class="cls-11" d="M278.82,112.86l60.7-35.05c.54-.31.98-.09.98.5s-.44,1.32-.98,1.63l-60.7,35.05c-.54.31-.98.09-.98-.5s.44-1.32.98-1.63Z"/><path class="cls-8" d="M281.11,130.72l4.23-2.44c.87-.5,1.57-.09,1.57.91v4.88c0,1-.7,2.22-1.57,2.72l-4.23,2.44c-.87.5-1.57.09-1.57-.91v-4.88c0-1,.7-2.22,1.57-2.72Z"/><path class="cls-6" d="M292.56,126.23l25.56-14.76c1.09-.63,1.96-.18,1.96.99s-.88,2.64-1.96,3.26l-25.56,14.76c-1.09.63-1.96.18-1.96-.99s.88-2.64,1.96-3.26Z"/><path class="cls-6" d="M280.52,145.96l64.39-37.18c.54-.31.98-.09.98.5s-.44,1.32-.98,1.63l-64.39,37.18c-.54.31-.98.09-.98-.5s.44-1.32.98-1.63Z"/><path class="cls-6" d="M280.52,152.35l64.39-37.18c.54-.31.98-.09.98.5s-.44,1.32-.98,1.63l-64.39,37.18c-.54.31-.98.09-.98-.5s.44-1.32.98-1.63Z"/><path class="cls-6" d="M280.52,158.73l64.39-37.18c.54-.31.98-.09.98.5s-.44,1.32-.98,1.63l-64.39,37.18c-.54.31-.98.09-.98-.5s.44-1.32.98-1.63Z"/><path class="cls-6" d="M280.52,165.14l64.39-37.18c.54-.31.98-.09.98.5s-.44,1.32-.98,1.63l-64.39,37.18c-.54.31-.98.09-.98-.5s.44-1.32.98-1.63Z"/><path class="cls-8" d="M281.11,177.54l4.23-2.44c.87-.5,1.57-.09,1.57.91v4.88c0,1-.7,2.22-1.57,2.72l-4.23,2.44c-.87.5-1.57.09-1.57-.91v-4.88c0-1,.7-2.22,1.57-2.72Z"/><path class="cls-6" d="M292.56,173.06l25.56-14.76c1.09-.63,1.96-.18,1.96.99s-.88,2.64-1.96,3.26l-25.56,14.76c-1.09.63-1.96.18-1.96-.99s.88-2.64,1.96-3.26Z"/><path class="cls-6" d="M280.52,192.79l64.39-37.18c.54-.31.98-.09.98.5s-.44,1.32-.98,1.63l-64.39,37.18c-.54.31-.98.09-.98-.5s.44-1.32.98-1.63Z"/><path class="cls-6" d="M280.52,199.17l64.39-37.18c.54-.31.98-.09.98.5s-.44,1.32-.98,1.63l-64.39,37.18c-.54.31-.98.09-.98-.5s.44-1.32.98-1.63Z"/><path class="cls-6" d="M280.52,205.55l64.39-37.18c.54-.31.98-.09.98.5s-.44,1.32-.98,1.63l-64.39,37.18c-.54.31-.98.09-.98-.5s.44-1.32.98-1.63Z"/><path class="cls-6" d="M280.52,211.96l64.39-37.18c.54-.31.98-.09.98.5s-.44,1.32-.98,1.63l-64.39,37.18c-.54.31-.98.09-.98-.5s.44-1.32.98-1.63Z"/><path class="cls-8" d="M287.13,221.29l4.23-2.44c.87-.5,1.57-.09,1.57.91v4.88c0,1-.7,2.22-1.57,2.72l-4.23,2.44c-.87.5-1.57.09-1.57-.91v-4.88c0-1,.7-2.22,1.57-2.72Z"/><path class="cls-6" d="M280.52,237.88l17.45-10.07c.54-.31.98-.09.98.5s-.44,1.32-.98,1.63l-17.45,10.07c-.54.31-.98.09-.98-.5s.44-1.32.98-1.63Z"/><path class="cls-8" d="M310.6,207.73l4.23-2.44c.87-.5,1.57-.09,1.57.91v4.88c0,1-.7,2.22-1.57,2.72l-4.23,2.44c-.87.5-1.57.1-1.57-.91v-4.88c0-1,.7-2.22,1.57-2.72Z"/><path class="cls-6" d="M303.99,224.32l17.45-10.07c.54-.31.98-.09.98.5s-.44,1.32-.98,1.63l-17.45,10.07c-.54.31-.98.09-.98-.5s.44-1.32.98-1.63Z"/><path class="cls-8" d="M334.07,194.17l4.23-2.44c.87-.5,1.57-.09,1.57.91v4.88c0,1-.7,2.22-1.57,2.72l-4.23,2.44c-.87.5-1.57.09-1.57-.91v-4.88c0-1,.7-2.22,1.57-2.72Z"/><path class="cls-6" d="M327.46,210.76l17.45-10.07c.54-.31.98-.09.98.5s-.44,1.32-.98,1.63l-17.45,10.07c-.54.31-.98.09-.98-.5s.44-1.32.98-1.63Z"/><path class="cls-6" d="M280.52,242.04l17.45-10.07c.54-.31.98-.09.98.5s-.44,1.32-.98,1.63l-17.45,10.07c-.54.31-.98.09-.98-.5s.44-1.32.98-1.63Z"/><path class="cls-6" d="M303.99,228.48l17.45-10.07c.54-.31.98-.09.98.5s-.44,1.32-.98,1.63l-17.45,10.07c-.54.31-.98.09-.98-.5s.44-1.32.98-1.63Z"/><path class="cls-6" d="M327.46,214.92l17.45-10.07c.54-.31.98-.09.98.5s-.44,1.32-.98,1.63l-17.45,10.07c-.54.31-.98.09-.98-.5s.44-1.32.98-1.63Z"/><path class="cls-6" d="M280.52,246.19l17.45-10.07c.54-.31.98-.09.98.5s-.44,1.32-.98,1.63l-17.45,10.07c-.54.31-.98.09-.98-.5s.44-1.32.98-1.63Z"/><path class="cls-6" d="M303.99,232.63l17.45-10.07c.54-.31.98-.09.98.5s-.44,1.32-.98,1.63l-17.45,10.07c-.54.31-.98.09-.98-.5s.44-1.32.98-1.63Z"/><path class="cls-6" d="M327.46,219.07l17.45-10.07c.54-.31.98-.09.98.5s-.44,1.32-.98,1.63l-17.45,10.07c-.54.31-.98.09-.98-.5s.44-1.32.98-1.63Z"/><path class="cls-8" d="M287.13,256.25l4.23-2.44c.87-.5,1.57-.09,1.57.91v4.88c0,1-.7,2.22-1.57,2.72l-4.23,2.44c-.87.5-1.57.09-1.57-.91v-4.88c0-1,.7-2.22,1.57-2.72Z"/><path class="cls-6" d="M280.52,272.84l17.45-10.07c.54-.31.98-.09.98.5s-.44,1.32-.98,1.63l-17.45,10.07c-.54.31-.98.09-.98-.5s.44-1.32.98-1.63Z"/><path class="cls-8" d="M310.6,242.69l4.23-2.44c.87-.5,1.57-.09,1.57.91v4.88c0,1-.7,2.22-1.57,2.72l-4.23,2.44c-.87.5-1.57.09-1.57-.91v-4.88c0-1,.7-2.22,1.57-2.72Z"/><path class="cls-6" d="M303.99,259.27l17.45-10.07c.54-.31.98-.09.98.5s-.44,1.32-.98,1.63l-17.45,10.07c-.54.31-.98.09-.98-.5s.44-1.32.98-1.63Z"/><path class="cls-8" d="M334.07,229.13l4.23-2.44c.87-.5,1.57-.09,1.57.91v4.88c0,1-.7,2.22-1.57,2.72l-4.23,2.44c-.87.5-1.57.09-1.57-.91v-4.88c0-1,.7-2.22,1.57-2.72Z"/><path class="cls-6" d="M327.46,245.71l17.45-10.07c.54-.31.98-.09.98.5s-.44,1.32-.98,1.63l-17.45,10.07c-.54.31-.98.09-.98-.5s.44-1.32.98-1.63Z"/><path class="cls-6" d="M280.52,276.99l17.45-10.07c.54-.31.98-.09.98.5s-.44,1.32-.98,1.63l-17.45,10.07c-.54.31-.98.09-.98-.5s.44-1.32.98-1.63Z"/><path class="cls-6" d="M303.99,263.43l17.45-10.07c.54-.31.98-.09.98.5s-.44,1.32-.98,1.63l-17.45,10.07c-.54.31-.98.09-.98-.5s.44-1.32.98-1.63Z"/><path class="cls-6" d="M327.46,249.87l17.45-10.07c.54-.31.98-.09.98.5s-.44,1.32-.98,1.63l-17.45,10.07c-.54.31-.98.09-.98-.5s.44-1.32.98-1.63Z"/><path class="cls-6" d="M280.52,281.15l17.45-10.07c.54-.31.98-.09.98.5s-.44,1.32-.98,1.63l-17.45,10.07c-.54.31-.98.09-.98-.5s.44-1.32.98-1.63Z"/><path class="cls-6" d="M303.99,267.59l17.45-10.07c.54-.31.98-.09.98.5s-.44,1.32-.98,1.63l-17.45,10.07c-.54.31-.98.09-.98-.5s.44-1.32.98-1.63Z"/><path class="cls-6" d="M327.46,254.03l17.45-10.07c.54-.31.98-.09.98.5s-.44,1.32-.98,1.63l-17.45,10.07c-.54.31-.98.09-.98-.5s.44-1.32.98-1.63Z"/><path class="cls-9" d="M240.98,102.84c10.2-5.89,18.47-1.12,18.47,10.67s-8.27,26.11-18.47,32c-10.2,5.89-18.47,1.12-18.47-10.67s8.27-26.11,18.47-32Z"/><path class="cls-11" d="M240.98,112.12c3.31-1.91,5.99-.36,5.99,3.46s-2.68,8.47-5.99,10.38c-3.31,1.91-5.99.36-5.99-3.46s2.68-8.47,5.99-10.38Z"/><path class="cls-11" d="M252.66,132.5c0-6.28-4.41-8.83-9.85-5.69l-3.4,1.96c-5.44,3.14-9.85,10.78-9.85,17.06v1.69c3.14,1.04,7.1.48,11.41-2.01,4.43-2.56,8.5-6.71,11.68-11.56v-1.46Z"/><path class="cls-9" d="M230.04,175.85l25.56-14.76c1.09-.63,1.96-.18,1.96.99s-.88,2.64-1.96,3.26l-25.56,14.76c-1.09.63-1.96.18-1.96-.99,0-1.18.88-2.64,1.96-3.26Z"/></g></g></svg>