<?xml version="1.0" encoding="UTF-8"?><svg id="Layer_2" xmlns="http://www.w3.org/2000/svg" viewBox="0 0 475.68 471.12"><defs><style>.cls-1{opacity:.65;}.cls-1,.cls-2,.cls-3,.cls-4,.cls-5,.cls-6,.cls-7,.cls-8,.cls-9,.cls-10,.cls-11{stroke-width:0px;}.cls-1,.cls-9{fill:#fff;}.cls-2{opacity:.3;}.cls-3{opacity:.15;}.cls-4{fill:#263238;}.cls-5{fill:#27debf;}.cls-6{fill:#455a64;}.cls-7{fill:#37474f;}.cls-8{fill:#e0e0e0;}.cls-10{fill:#fafafa;}.cls-11{fill:#f0f0f0;}</style></defs><g id="Browser"><path id="Floor" class="cls-11" d="M69.66,430.9c-92.88-53.63-92.88-140.57,0-194.2,92.88-53.63,243.47-53.63,336.36,0,92.88,53.63,92.88,140.57,0,194.2s-243.47,53.63-336.36,0Z"/><path id="Shadow" class="cls-8" d="M195.51,441.02l-141.8-81.93c-5.53-3.19-5.53-8.42,0-11.61l229.6-132.66c2.28-1.32,6.01-1.32,8.28,0l145.28,83.94c2.92,1.69,2.92,5.91,0,7.59l-233.08,134.66c-2.28,1.32-6.01,1.32-8.28,0Z"/><g id="Plants"><path class="cls-5" d="M68.35,311.49s-.3-21.35-9.17-38.77-22.28-29.09-35.63-31.49c-13.36-2.4-25.46,8.9-11.9,18.84,13.56,9.94,38.28,21.16,46.89,54.15l9.81-2.72Z"/><path class="cls-3" d="M68.35,311.49s-.3-21.35-9.17-38.77-22.28-29.09-35.63-31.49c-13.36-2.4-25.46,8.9-11.9,18.84,13.56,9.94,38.28,21.16,46.89,54.15l9.81-2.72Z"/><path class="cls-9" d="M64.95,305.62s.1-.01.15-.03c.38-.11.6-.51.49-.9-10.72-36.4-36.31-53.7-48.35-57.76-.38-.13-.79.08-.92.45-.13.38.07.79.45.92,11.79,3.98,36.87,20.97,47.42,56.8.1.33.42.54.75.52Z"/><g id="Plant"><path class="cls-5" d="M69.7,331.63c-4.96,2.85-7.8,4.7-16.9,5.46-5.43.46-12.77-.31-19.1-2.59-1.69-.61-4.3-1.94-2.83-3.56.76-.84,9.68-2.25,12.87-6.01-3.73,1-8.65,2.13-12.51,2.22-3.86.08-7.89-.84-10.85-3.32-2.94-2.46-4.54-6.14-6.03-9.67-.51-1.21-.99-2.69-.21-3.74.5-.67,1.36-.93,2.16-1.15,3.38-.94,6.76-1.88,10.14-2.82,2.2-.47.65-1.93-.19-2.05-1.45-.21-2.83-.21-3.67-.16-3.87.21-8.14.94-11.3-1.31-1.89-1.34-3.01-3.57-3.48-5.84-.17-.8-.83-11.24-.37-11.37,2.51-.69,5.15-1.05,7.73-1.35,2.45-.28,4.84-.39,7.28-.72,2.76-.37,5.54-.55,8.32-.55.94,0,1.94.04,2.74.55,1.1.69,1.53,2.08,1.67,3.36.14,1.29.07,2.63.52,3.84,1.19-.1,1.58-1.65,1.55-2.84-.03-1.19,0-2.68,1.07-3.19.55-.26,1.19-.16,1.78-.03,3.78.77,7.46,2,10.95,3.64,1.6.75,3.19,1.62,4.34,2.96,1.69,1.98,2.2,4.72,2.21,7.32s-.39,5.21-.22,7.8c2.04-1.82,4.87-7.35,5.09-10.07,4.38,2.82,6.98,8.62,7.79,16.56.54,5.24.41,12.13-.32,17.44-.02.18-.07,1.11-.23,1.2Z"/><path class="cls-2" d="M69.7,331.63c-4.96,2.85-7.8,4.7-16.9,5.46-5.43.46-12.77-.31-19.1-2.59-1.69-.61-4.3-1.94-2.83-3.56.76-.84,9.68-2.25,12.87-6.01-3.73,1-8.65,2.13-12.51,2.22-3.86.08-7.89-.84-10.85-3.32-2.94-2.46-4.54-6.14-6.03-9.67-.51-1.21-.99-2.69-.21-3.74.5-.67,1.36-.93,2.16-1.15,3.38-.94,6.76-1.88,10.14-2.82,2.2-.47.65-1.93-.19-2.05-1.45-.21-2.83-.21-3.67-.16-3.87.21-8.14.94-11.3-1.31-1.89-1.34-3.01-3.57-3.48-5.84-.17-.8-.83-11.24-.37-11.37,2.51-.69,5.15-1.05,7.73-1.35,2.45-.28,4.84-.39,7.28-.72,2.76-.37,5.54-.55,8.32-.55.94,0,1.94.04,2.74.55,1.1.69,1.53,2.08,1.67,3.36.14,1.29.07,2.63.52,3.84,1.19-.1,1.58-1.65,1.55-2.84-.03-1.19,0-2.68,1.07-3.19.55-.26,1.19-.16,1.78-.03,3.78.77,7.46,2,10.95,3.64,1.6.75,3.19,1.62,4.34,2.96,1.69,1.98,2.2,4.72,2.21,7.32s-.39,5.21-.22,7.8c2.04-1.82,4.87-7.35,5.09-10.07,4.38,2.82,6.98,8.62,7.79,16.56.54,5.24.41,12.13-.32,17.44-.02.18-.07,1.11-.23,1.2Z"/><path class="cls-9" d="M68.88,330.65c-.22,0-.43-.12-.53-.32-14.19-27.24-45.57-38.72-53.2-40.3-.32-.07-.53-.39-.47-.71.07-.32.39-.53.71-.47,7.75,1.61,39.61,13.26,54.02,40.92.15.29.04.66-.25.81-.09.05-.18.07-.28.07Z"/><path class="cls-9" d="M27.66,314.95c-.31,0-.57-.24-.6-.55-.03-.33.22-.62.55-.65,15.66-1.23,20.72-7.36,20.77-7.42.21-.26.58-.3.84-.1.26.21.3.58.1.84-.21.27-5.37,6.6-21.62,7.88-.02,0-.03,0-.05,0Z"/></g></g><g id="Plants-2"><path class="cls-5" d="M447.88,238.98c-6.94,7.59-19.67,20.08-27.07,32.14-.02.03-.04.06-.05.09-2.89,4.73-4.96,9.39-5.53,13.66l-.52,7.71-3.17-1.83-.53-.31-1.31-.75h0c-1.88-1.09-3.06-3.08-3.11-5.24-.51-18.8,4.51-34.78,9.37-44.46,6.65-13.21,19.11-26.68,29.94-25.36,10.07,1.23,11.66,13.77,1.98,24.35Z"/><path class="cls-3" d="M447.88,238.98c-6.94,7.59-19.67,20.08-27.07,32.14-.02.03-.04.06-.05.09-2.89,4.73-4.96,9.39-5.53,13.66l-.52,7.71-3.17-1.83-.53-.31-1.31-.75h0c-1.88-1.09-3.06-3.08-3.11-5.24-.51-18.8,4.51-34.78,9.37-44.46,6.65-13.21,19.11-26.68,29.94-25.36,10.07,1.23,11.66,13.77,1.98,24.35Z"/><path class="cls-9" d="M442.77,221.92c-13.26,8.38-32.19,37.59-31.76,68.52l-1.31-.75c-.11-31.12,18.98-60.4,32.37-68.87.31-.2.71-.1.9.21.19.3.1.7-.2.89Z"/><path class="cls-5" d="M455.74,263.76c-2.31,6.27-15.49,11.71-25.22,20.76-2.56,2.38-4.79,4.84-6.67,7.25-1.88,2.41-5.25,3.05-7.9,1.52h0l-1.16-.67-.08-.04-3.17-1.83c1.88-7.08,5.26-13.79,9.22-19.54.01-.03.03-.06.05-.09,6.44-9.34,14.39-16.09,19.94-17.62,10.91-3,17.76,2.73,14.99,10.26Z"/><path class="cls-2" d="M455.74,263.76c-2.31,6.27-15.49,11.71-25.22,20.76-2.56,2.38-4.79,4.84-6.67,7.25-1.88,2.41-5.25,3.05-7.9,1.52h0l-1.16-.67-.08-.04-3.17-1.83c1.88-7.08,5.26-13.79,9.22-19.54.01-.03.03-.06.05-.09,6.44-9.34,14.39-16.09,19.94-17.62,10.91-3,17.76,2.73,14.99,10.26Z"/><path class="cls-9" d="M446.47,259.99c-7.97,2.25-23.41,11.97-30.52,33.3l-1.16-.67c7.21-21.59,22.56-31.41,31.33-33.88.36-.1.7.1.8.45.1.35-.1.71-.45.8Z"/></g><g id="Laptop"><path class="cls-6" d="M60.94,343.99c0,3.47,2.6,7.78,5.8,9.63l126.29,72.93c3.2,1.85,8.4,1.85,11.6,0l222.38-128.39c3.2-1.85,5.8-6.16,5.8-9.63,0-3.47-2.6-7.78-5.8-9.63l-126.29-72.93c-3.2-1.85-8.4-1.85-11.6,0l-222.38,128.39c-3.2,1.85-5.8,6.16-5.8,9.63Z"/><path class="cls-7" d="M432.81,288.53c0,3.47-2.6,7.78-5.8,9.63l-222.38,128.4c-1.6.92-3.7,1.38-5.79,1.38v-12.56c2.09,0,4.19-.47,5.79-1.39l222.38-128.39c2.81-1.62,3.16-4.12,1.05-5.96,2.7,2.09,4.75,5.81,4.75,8.89Z"/><path class="cls-4" d="M198.83,415.38v12.55c-2.1,0-4.21-.46-5.8-1.38l-126.29-72.93c-3.2-1.85-5.8-6.16-5.8-9.63,0-3.26,2.29-7.25,5.21-9.26-2.6,1.86-2.4,4.59.59,6.32l126.29,72.93c1.59.92,3.7,1.39,5.8,1.39Z"/><path class="cls-7" d="M55.5,334.57c-2.84-2-2.84-4.66-2.84-8.36v-186.88c0-3.7,2.6-8.2,5.8-10.05L280.83.89c3.2-1.85,6.16-.51,9.16,1.23,3.01,1.74,4.92,3.23,4.92,6.93v186.88c0,3.7-2.6,8.2-5.8,10.05l-222.38,128.39c-4.85,3.27-8.15,2.38-11.24.21Z"/><path class="cls-4" d="M66.74,334.36c-4.85,3.26-8.16,2.38-11.24.2-2.83-2-2.84-4.67-2.84-8.36v-186.87c0-1.85.65-3.9,1.69-5.71l8.28,4.82c-1.05,1.8-1.69,3.85-1.69,5.69v186.88c0,3.7,2.59,5.19,5.8,3.35Z"/><path class="cls-6" d="M294.92,9.04c0-3.69-2.6-5.19-5.8-3.35L66.74,134.09c-1.6.93-3.06,2.52-4.1,4.34l-8.28-4.81h-.01c1.05-1.82,2.51-3.41,4.11-4.34L280.83.89c3.2-1.85,6.16-.51,9.16,1.22,3.01,1.74,4.93,3.24,4.93,6.93Z"/><path class="cls-4" d="M69.86,140.78L284.26,17.03c1.92-1.11,3.48-.21,3.48,2.01v171.41c0,2.22-1.56,4.92-3.48,6.03l-214.4,123.75c-1.92,1.11-3.48.21-3.48-2.01v-171.4c0-2.22,1.56-4.92,3.48-6.03Z"/><path class="cls-5" d="M69.86,140.78c-1.92,1.11-3.48,3.81-3.48,6.03v170.37l213.14-123.02c1.92-1.11,3.48-3.81,3.48-6.03V17.76l-213.14,123.02Z"/><path class="cls-1" d="M69.86,140.78c-1.92,1.11-3.48,3.81-3.48,6.03v170.37l213.14-123.02c1.92-1.11,3.48-3.81,3.48-6.03V17.76l-213.14,123.02Z"/><path class="cls-7" d="M82.79,334.7l206.41-119.17c1.6-.92,4.2-.92,5.8,0l6.01,3.15c1.6.92,1.6,2.42,0,3.35l-206.45,119.15c-1.6.92-4.2.92-5.8,0l-5.97-3.14c-1.6-.92-1.6-2.42,0-3.35Z"/><path class="cls-4" d="M98.98,344.33l206.41-119.17c1.6-.92,3.97-1.05,5.3-.29l53.73,31.02c1.33.76,1.1,2.13-.5,3.06l-206.17,119.01c-1.6.92-3.98,1.06-5.31.3l-53.95-30.88c-1.33-.76-1.11-2.13.49-3.05Z"/><path class="cls-6" d="M276.14,274.72l6.46-3.73c.27-.16.31-.39.09-.52l-5.7-3.29c-.22-.13-.63-.11-.9.05l-6.46,3.73c-.27.16-.31.39-.09.52l5.7,3.29c.23.13.63.11.9-.05ZM267.12,262.05l-6.46,3.73c-.27.16-.31.39-.09.52l5.7,3.29c.22.13.63.11.9-.05l6.46-3.73c.27-.16.32-.39.09-.52l-5.7-3.29c-.22-.13-.63-.11-.9.05ZM246.24,274.11l-10.94,6.31c-.27.16-.31.39-.09.52l5.7,3.29c.23.13.63.11.9-.05l10.94-6.31c.27-.16.31-.39.09-.52l-5.7-3.29c-.23-.13-.63-.11-.9.05ZM257.67,267.51l-6.46,3.73c-.27.16-.31.39-.09.52l5.7,3.29c.22.13.63.11.9-.05l6.46-3.73c.27-.16.32-.39.09-.52l-5.7-3.29c-.22-.13-.63-.11-.9.05ZM232.32,282.15l-6.46,3.73c-.28.16-.32.39-.09.52l5.7,3.29c.22.13.63.11.9-.05l6.46-3.73c.27-.16.31-.39.09-.52l-5.7-3.29c-.22-.13-.63-.11-.9.05ZM222.87,287.6l-6.46,3.73c-.27.16-.31.39-.09.52l5.7,3.29c.22.13.63.11.9-.05l6.46-3.73c.27-.16.31-.39.09-.52l-5.7-3.29c-.23-.13-.63-.11-.9.05ZM246.82,302l6.46-3.73c.27-.16.31-.39.09-.52l-5.7-3.29c-.23-.13-.63-.11-.9.05l-6.46,3.73c-.27.16-.32.39-.09.52l5.7,3.29c.22.13.63.11.9-.05ZM237.38,307.45l6.46-3.73c.27-.16.31-.39.09-.52l-5.7-3.29c-.23-.13-.63-.11-.9.05l-6.46,3.73c-.27.16-.31.39-.09.52l5.7,3.29c.23.13.63.11.9-.05ZM227.93,312.91l6.46-3.73c.27-.16.31-.39.09-.52l-5.7-3.29c-.23-.13-.63-.11-.9.05l-6.46,3.73c-.27.16-.31.39-.09.52l5.7,3.29c.23.13.63.11.9-.05ZM218.48,318.36l6.46-3.73c.27-.16.31-.39.09-.52l-5.7-3.29c-.22-.13-.63-.11-.9.05l-6.46,3.73c-.27.16-.32.39-.09.52l5.7,3.29c.22.13.63.11.9-.05ZM266.69,280.18l6.46-3.73c.27-.16.31-.39.09-.52l-5.7-3.29c-.22-.13-.63-.11-.9.05l-6.46,3.73c-.27.16-.32.39-.09.52l5.7,3.29c.23.13.63.11.91-.05ZM256.27,296.55l14.42-8.32c.27-.16.31-.39.09-.52l-14.67-8.47c-.23-.13-.63-.11-.9.05l-7.46,4.31c-.27.16-.31.39-.09.52l8.15,4.71c.22.13.18.36-.09.52l-5.97,3.44c-.27.16-.32.39-.09.52l5.7,3.29c.22.13.63.11.9-.05ZM213.43,293.05l-6.46,3.73c-.27.16-.31.39-.09.52l5.7,3.29c.22.13.63.11.9-.05l6.46-3.73c.27-.16.31-.39.09-.52l-5.7-3.29c-.22-.13-.63-.11-.9.05ZM203.98,298.51l-6.46,3.73c-.27.16-.31.39-.09.52l5.7,3.29c.23.13.63.11.9-.05l6.46-3.73c.27-.16.31-.39.09-.52l-5.7-3.29c-.22-.13-.63-.11-.9.05ZM151.46,356.59c.22.13.63.11.9-.05l6.46-3.73c.27-.16.31-.39.09-.52l-5.7-3.29c-.23-.13-.63-.11-.9.05l-6.46,3.73c-.27.16-.31.39-.09.52l5.7,3.29ZM128.42,342.13l-6.46,3.73c-.27.16-.32.39-.09.52l5.7,3.29c.23.13.63.11.9-.05l6.46-3.73c.27-.16.31-.39.09-.52l-5.7-3.29c-.23-.13-.63-.11-.9.05ZM140.01,352.85c.23.13.63.11.9-.05l6.46-3.73c.27-.16.31-.39.09-.52l-5.7-3.29c-.23-.13-.63-.11-.9.05l-6.46,3.73c-.27.16-.31.39-.09.52l5.7,3.29ZM166.3,358.84l6.46-3.73c.27-.16.32-.39.09-.52l-5.7-3.29c-.22-.13-.63-.11-.9.05l-6.46,3.73c-.27.16-.31.39-.09.52l5.7,3.29c.22.13.63.11.9-.05ZM155.95,364.35c.22.13.63.11.9-.05l6.46-3.73c.27-.16.31-.39.09-.52l-5.7-3.29c-.23-.13-.63-.11-.9.05l-6.46,3.73c-.27.16-.31.39-.09.52l5.7,3.29ZM137.86,336.68l-6.46,3.73c-.28.16-.31.39-.09.52l5.7,3.29c.22.13.63.11.9-.05l6.46-3.73c.27-.16.31-.39.09-.52l-5.7-3.29c-.22-.13-.63-.11-.9.05ZM185.09,309.41l-6.46,3.73c-.27.16-.31.39-.09.52l5.7,3.29c.23.13.63.11.9-.05l6.46-3.73c.27-.16.31-.39.09-.52l-5.7-3.29c-.22-.13-.63-.11-.9.05ZM147.31,331.23l-6.46,3.73c-.27.16-.31.39-.09.52l5.7,3.29c.23.13.63.11.9-.05l6.46-3.73c.27-.16.31-.39.09-.52l-5.7-3.29c-.23-.13-.63-.11-.9.05ZM194.54,303.96l-6.46,3.73c-.27.16-.31.39-.09.52l5.7,3.29c.23.13.63.11.9-.05l6.46-3.73c.27-.16.31-.39.09-.52l-5.7-3.29c-.23-.13-.63-.11-.9.05ZM175.64,314.87l-6.46,3.73c-.27.16-.32.39-.09.52l5.7,3.29c.22.13.63.11.9-.05l6.46-3.73c.27-.16.32-.39.09-.52l-5.7-3.29c-.22-.13-.63-.11-.9.05ZM166.2,320.32l-6.46,3.73c-.27.16-.32.39-.09.52l5.7,3.29c.22.13.63.11.9-.05l6.46-3.73c.27-.16.31-.39.09-.52l-5.7-3.29c-.22-.13-.63-.11-.9.05ZM156.75,325.77l-6.46,3.73c-.27.16-.31.39-.09.52l5.7,3.29c.23.13.63.11.9-.05l6.46-3.73c.27-.16.31-.39.09-.52l-5.7-3.29c-.23-.13-.63-.11-.9.05ZM199.59,329.27l6.46-3.73c.27-.16.32-.39.09-.52l-5.7-3.29c-.23-.13-.63-.11-.9.05l-6.46,3.73c-.27.16-.31.39-.09.52l5.7,3.29c.23.13.63.11.9-.05ZM288,250l-6.46,3.73c-.27.16-.31.39-.09.52l5.7,3.29c.22.13.63.11.9-.05l6.46-3.73c.27-.16.31-.39.09-.52l-5.7-3.29c-.22-.13-.63-.11-.9.05ZM276.56,256.6l-6.46,3.73c-.27.16-.31.39-.09.52l5.7,3.29c.22.13.63.11.9-.05l6.46-3.73c.27-.16.31-.39.09-.52l-5.7-3.29c-.22-.13-.63-.11-.9.05ZM297.44,244.55l-6.46,3.73c-.27.16-.31.39-.09.52l5.7,3.29c.22.13.63.11.9-.05l6.46-3.73c.27-.16.32-.39.09-.52l-5.7-3.29c-.23-.13-.63-.11-.91.05ZM244.82,292.81l6.46-3.73c.27-.16.31-.39.09-.52l-5.7-3.29c-.22-.13-.63-.11-.9.05l-6.46,3.73c-.27.16-.31.39-.09.52l5.7,3.29c.23.13.63.11.9-.05ZM307.79,239.04c-.22-.13-.63-.11-.9.05l-6.46,3.73c-.27.16-.32.39-.09.52l5.7,3.29c.22.13.63.11.9-.05l6.46-3.73c.27-.16.32-.39.09-.52l-5.7-3.29ZM209.04,323.81l6.46-3.73c.27-.16.31-.39.09-.52l-5.7-3.29c-.23-.13-.63-.11-.9.05l-6.46,3.73c-.27.16-.31.39-.09.52l5.7,3.29c.22.13.63.11.9-.05ZM324.87,256.94l6.46-3.73c.27-.16.31-.39.09-.52l-5.7-3.29c-.22-.13-.63-.11-.9.05l-6.46,3.73c-.27.16-.32.39-.09.52l5.7,3.29c.22.13.63.11.9-.05ZM306.46,257.22l6.46-3.73c.27-.16.31-.39.09-.52l-5.7-3.29c-.22-.13-.63-.11-.9.05l-6.46,3.73c-.27.16-.32.39-.09.52l5.7,3.29c.22.13.63.11.9-.05ZM316.76,244.22c-.22-.13-.63-.11-.9.05l-6.46,3.73c-.27.16-.31.39-.09.52l5.7,3.29c.22.13.63.11.9-.05l6.46-3.73c.27-.16.32-.39.09-.52l-5.7-3.29ZM318.75,243.07l14.67,8.47c.23.13.63.11.9-.05l6.46-3.73c.27-.16.31-.39.09-.52l-14.67-8.47c-.23-.13-.63-.11-.9.05l-6.46,3.73c-.27.16-.31.39-.09.52ZM296.96,255.18l-6.46,3.73c-.27.16-.32.39-.09.52l5.7,3.29c.23.13.63.11.9-.05l6.46-3.73c.27-.16.31-.39.09-.52l-5.7-3.29c-.23-.13-.63-.11-.9.05ZM225.87,296.22l-6.46,3.73c-.27.16-.31.39-.09.52l5.7,3.29c.22.13.63.11.9-.05l6.46-3.73c.27-.16.31-.39.09-.52l-5.7-3.29c-.23-.13-.63-.11-.9.05ZM314.52,262.44c.22.13.63.11.9-.05l6.46-3.73c.27-.16.31-.39.09-.52l-5.7-3.29c-.22-.13-.63-.11-.9.05l-6.46,3.73c-.27.16-.32.39-.09.52l5.7,3.29ZM235.32,290.77l-6.46,3.73c-.27.16-.31.39-.09.52l5.7,3.29c.22.13.63.11.9-.05l6.46-3.73c.27-.16.31-.39.09-.52l-5.7-3.29c-.22-.13-.63-.11-.9.05ZM160.91,351.13c.23.13.63.11.9-.05l6.46-3.73c.27-.16.31-.39.09-.52l-5.7-3.29c-.22-.13-.63-.11-.9.05l-6.46,3.73c-.27.16-.31.39-.09.52l5.7,3.29ZM150.31,339.85l-6.46,3.73c-.27.16-.31.39-.09.52l5.7,3.29c.23.13.63.11.9-.05l6.46-3.73c.27-.16.31-.39.09-.52l-5.7-3.29c-.22-.13-.63-.11-.9.05ZM171.26,345.63l6.46-3.73c.27-.16.32-.39.09-.52l-5.7-3.29c-.22-.13-.63-.11-.9.05l-6.46,3.73c-.27.16-.31.39-.09.52l5.7,3.29c.22.13.63.11.9-.05ZM180.7,340.18l6.46-3.73c.27-.16.32-.39.09-.52l-5.7-3.29c-.22-.13-.63-.11-.9.05l-6.46,3.73c-.27.16-.32.39-.09.52l5.7,3.29c.22.13.63.11.9-.05ZM190.15,334.72l6.46-3.73c.27-.16.31-.39.09-.52l-5.7-3.29c-.22-.13-.63-.11-.9.05l-6.46,3.73c-.27.16-.31.39-.09.52l5.7,3.29c.23.13.63.11.9-.05ZM159.75,334.39l-6.46,3.73c-.27.16-.31.39-.09.52l5.7,3.29c.22.13.63.11.9-.05l6.46-3.73c.27-.16.31-.39.09-.52l-5.7-3.29c-.23-.13-.63-.11-.9.05ZM169.2,328.94l-6.46,3.73c-.27.16-.32.39-.09.52l5.7,3.29c.23.13.63.11.9-.05l6.46-3.73c.27-.16.31-.39.09-.52l-5.7-3.29c-.22-.13-.63-.11-.9.05ZM206.98,307.13l-6.46,3.73c-.27.16-.31.39-.09.52l5.7,3.29c.23.13.63.11.9-.05l6.46-3.73c.27-.16.31-.39.09-.52l-5.7-3.29c-.22-.13-.63-.11-.9.05ZM197.54,312.58l-6.46,3.73c-.27.16-.32.39-.09.52l5.7,3.29c.22.13.63.11.9-.05l6.46-3.73c.27-.16.32-.39.09-.52l-5.7-3.29c-.22-.13-.63-.11-.9.05ZM216.43,301.67l-6.46,3.73c-.27.16-.31.39-.09.52l5.7,3.29c.22.13.63.11.9-.05l6.46-3.73c.27-.16.31-.39.09-.52l-5.7-3.29c-.22-.13-.63-.11-.9.05ZM178.64,323.49l-6.46,3.73c-.27.16-.32.39-.09.52l5.7,3.29c.22.13.63.11.9-.05l6.46-3.73c.27-.16.31-.39.09-.52l-5.7-3.29c-.22-.13-.63-.11-.9.05ZM188.09,318.03l-6.46,3.73c-.27.16-.31.39-.09.52l5.7,3.29c.22.13.63.11.9-.05l6.46-3.73c.27-.16.32-.39.09-.52l-5.7-3.29c-.22-.13-.63-.11-.9.05ZM175.75,353.39l6.46-3.73c.27-.16.31-.39.09-.52l-5.7-3.29c-.22-.13-.63-.11-.9.05l-6.46,3.73c-.27.16-.31.39-.09.52l5.7,3.29c.23.13.63.11.9-.05ZM125.58,350.83l-5.7-3.29c-.22-.13-.63-.11-.9.05l-6.46,3.73c-.27.16-.31.39-.09.52l5.7,3.29c.23.13.63.11.9-.05l6.46-3.73c.27-.16.31-.39.09-.52ZM138.02,353.99l-5.7-3.29c-.22-.13-.63-.11-.9.05l-9.94,5.74c-.27.16-.31.39-.09.52l5.7,3.29c.23.13.63.11.9-.05l9.94-5.74c.27-.16.31-.39.09-.52ZM117.18,344.26l-5.7-3.29c-.22-.13-.63-.11-.9.05l-7.95,4.59c-.27.16-.32.39-.09.52l5.7,3.29c.22.13.63.11.9-.05l7.95-4.59c.27-.16.31-.39.09-.52ZM123.28,340.74c.22.13.63.11.9-.05l6.46-3.73c.27-.16.32-.39.09-.52l-5.7-3.29c-.22-.13-.63-.11-.9.05l-6.46,3.73c-.28.16-.32.39-.09.52l5.7,3.29ZM149.47,357.73l-5.7-3.29c-.23-.13-.63-.11-.9.05l-12.43,7.17c-.27.16-.31.39-.09.52l5.7,3.29c.23.13.63.11.9-.05l12.43-7.18c.27-.16.32-.39.09-.52ZM153.96,365.49l-5.7-3.29c-.22-.13-.63-.11-.9.05l-7.95,4.59c-.27.16-.32.39-.09.52l5.7,3.29c.22.13.63.11.9-.05l7.95-4.59c.27-.16.31-.39.09-.52ZM193.51,300.19c.22.13.63.11.9-.05l6.46-3.73c.27-.16.32-.39.09-.52l-5.7-3.29c-.23-.13-.63-.11-.91.05l-6.46,3.73c-.27.16-.32.39-.09.52l5.7,3.29ZM174.62,311.1c.23.13.63.11.9-.05l6.46-3.73c.27-.16.31-.39.09-.52l-5.7-3.29c-.22-.13-.63-.11-.9.05l-6.46,3.73c-.27.16-.31.39-.09.52l5.7,3.29ZM132.73,335.28c.23.13.63.11.9-.05l6.46-3.73c.27-.16.32-.39.09-.52l-5.7-3.29c-.22-.13-.63-.11-.9.05l-6.46,3.73c-.27.16-.31.39-.09.52l5.7,3.29ZM184.06,305.64c.22.13.63.11.9-.05l6.46-3.73c.27-.16.31-.39.09-.52l-5.7-3.29c-.23-.13-.63-.11-.9.05l-6.46,3.73c-.27.16-.32.39-.09.52l5.7,3.29ZM165.17,316.55c.23.13.63.11.9-.05l6.46-3.73c.27-.16.31-.39.09-.52l-5.7-3.29c-.23-.13-.63-.11-.9.05l-6.46,3.73c-.27.16-.31.39-.09.52l5.7,3.29ZM159.22,366.23c-.23-.13-.63-.11-.9.05l-9.94,5.74c-.27.16-.31.39-.09.52l5.7,3.29c.23.13.63.11.9-.05l9.94-5.74c.27-.16.31-.39.09-.52l-5.7-3.29ZM151.62,324.38c.23.13.63.11.9-.05l6.46-3.73c.27-.16.31-.39.09-.52l-5.7-3.29c-.23-.13-.63-.11-.9.05l-6.46,3.73c-.27.16-.31.39-.09.52l5.7,3.29ZM142.17,329.83c.23.13.63.11.9-.05l6.46-3.73c.27-.16.31-.39.09-.52l-5.7-3.29c-.23-.13-.63-.11-.9.05l-6.46,3.73c-.27.16-.31.39-.09.52l5.7,3.29ZM334.21,265.2c-.23-.13-.63-.11-.9.05l-15.91,9.18c-.27.16-.32.39-.09.52l5.7,3.29c.22.13.63.11.9-.05l15.91-9.18c.27-.16.32-.39.09-.52l-5.7-3.29ZM313.33,277.25c-.22-.13-.63-.11-.9.05l-6.46,3.73c-.27.16-.31.39-.09.52l5.7,3.29c.23.13.63.11.9-.05l6.46-3.73c.27-.16.31-.39.09-.52l-5.7-3.29ZM185.19,347.93l6.46-3.73c.27-.16.31-.39.09-.52l-5.7-3.29c-.23-.13-.63-.11-.9.05l-6.46,3.73c-.27.16-.31.39-.09.52l5.7,3.29c.23.13.63.11.9-.05ZM294.44,288.16c-.23-.13-.63-.11-.9.05l-6.46,3.73c-.27.16-.31.39-.09.52l5.7,3.29c.23.13.63.11.9-.05l6.46-3.73c.27-.16.31-.39.09-.52l-5.7-3.29ZM343.66,259.75c-.23-.13-.63-.11-.9.05l-6.46,3.73c-.27.16-.31.39-.09.52l5.7,3.29c.23.13.63.11.9-.05l6.46-3.73c.27-.16.31-.39.09-.52l-5.7-3.29ZM358.8,257.58l-14.67-8.47c-.23-.13-.63-.11-.9.05l-6.46,3.73c-.27.16-.32.39-.09.52l14.67,8.47c.23.13.63.11.9-.05l6.46-3.73c.27-.16.31-.39.09-.52ZM259.14,308.54c-.22-.13-.63-.11-.9.05l-7.95,4.59c-.27.16-.31.39-.09.52l5.7,3.29c.23.13.63.11.9-.05l7.95-4.59c.27-.16.32-.39.09-.52l-5.7-3.29ZM283,294.76c-.23-.13-.63-.11-.9.05l-9.94,5.74c-.27.16-.31.39-.09.52l5.7,3.29c.22.13.63.11.9-.05l9.94-5.74c.27-.16.31-.39.09-.52l-5.7-3.29ZM237.27,321.17c-.22-.13-.63-.11-.9.05l-53.19,30.71c-.27.16-.32.39-.09.52l5.7,3.29c.22.13.63.11.9-.05l53.19-30.71c.27-.16.32-.39.09-.52l-5.7-3.29ZM181.09,353.6c-.22-.13-.63-.11-.9.05l-7.95,4.59c-.27.16-.31.39-.09.52l5.7,3.29c.23.13.63.11.9-.05l7.95-4.59c.27-.16.31-.39.09-.52l-5.7-3.29ZM248.2,314.85c-.22-.13-.63-.11-.9.05l-7.95,4.59c-.27.16-.32.39-.09.52l5.7,3.29c.22.13.63.11.9-.05l7.95-4.59c.27-.16.31-.39.09-.52l-5.7-3.29ZM170.15,359.92c-.22-.13-.63-.11-.9.05l-7.95,4.59c-.27.16-.31.39-.09.52l5.7,3.29c.23.13.63.11.9-.05l7.95-4.59c.27-.16.32-.39.09-.52l-5.7-3.29ZM270.08,302.23c-.22-.13-.63-.11-.9.05l-7.95,4.59c-.27.16-.31.39-.09.52l5.7,3.29c.22.13.63.11.9-.05l7.95-4.59c.27-.16.31-.39.09-.52l-5.7-3.29ZM303.88,282.71c-.23-.13-.63-.11-.9.05l-6.46,3.73c-.27.16-.31.39-.09.52l5.7,3.29c.22.13.63.11.9-.05l6.46-3.73c.27-.16.31-.39.09-.52l-5.7-3.29ZM324.39,267.57l6.46-3.73c.27-.16.32-.39.09-.52l-5.7-3.29c-.22-.13-.63-.11-.9.05l-6.46,3.73c-.27.16-.31.39-.09.52l5.7,3.29c.22.13.63.11.9-.05ZM285.58,269.27l6.46-3.73c.27-.16.31-.39.09-.52l-5.7-3.29c-.22-.13-.63-.11-.9.05l-6.46,3.73c-.28.16-.31.39-.09.52l5.7,3.29c.23.13.63.11.9-.05ZM260.76,304.31l18.89-10.91c.27-.16.31-.39.09-.52l-5.7-3.29c-.22-.13-.63-.11-.9.05l-18.89,10.91c-.27.16-.31.39-.09.52l5.7,3.29c.23.13.63.11.9-.05ZM314.04,273.07c.22.13.63.11.9-.05l6.46-3.73c.27-.16.32-.39.09-.52l-5.7-3.29c-.22-.13-.63-.11-.9.05l-6.46,3.73c-.27.16-.31.39-.09.52l5.7,3.29ZM305.98,267.85l6.46-3.73c.27-.16.31-.39.09-.52l-5.7-3.29c-.22-.13-.63-.11-.9.05l-6.46,3.73c-.27.16-.32.39-.09.52l5.7,3.29c.22.13.63.11.9-.05ZM251.31,309.76l6.46-3.73c.27-.16.31-.39.09-.52l-5.7-3.29c-.22-.13-.63-.11-.9.05l-6.46,3.73c-.27.16-.31.39-.09.52l5.7,3.29c.23.13.63.11.9-.05ZM293.16,285.13c.23.13.63.11.9-.05l6.46-3.73c.27-.16.31-.39.09-.52l-5.7-3.29c-.23-.13-.63-.11-.9.05l-6.46,3.73c-.27.16-.31.39-.09.52l5.7,3.29ZM204.08,337.03l6.46-3.73c.27-.16.31-.39.09-.52l-5.7-3.29c-.22-.13-.63-.11-.9.05l-6.46,3.73c-.27.16-.31.39-.09.52l5.7,3.29c.22.13.63.11.9-.05ZM213.53,331.57l6.46-3.73c.27-.16.31-.39.09-.52l-5.7-3.29c-.22-.13-.63-.11-.9.05l-6.46,3.73c-.27.16-.31.39-.09.52l5.7,3.29c.23.13.63.11.9-.05ZM194.64,342.48l6.46-3.73c.27-.16.31-.39.09-.52l-5.7-3.29c-.23-.13-.63-.11-.9.05l-6.46,3.73c-.27.16-.31.39-.09.52l5.7,3.29c.23.13.63.11.9-.05ZM232.42,320.67l6.46-3.73c.27-.16.32-.39.09-.52l-5.7-3.29c-.22-.13-.63-.11-.9.05l-6.46,3.73c-.27.16-.31.39-.09.52l5.7,3.29c.23.13.63.11.9-.05ZM222.98,326.12l6.46-3.73c.27-.16.32-.39.09-.52l-5.7-3.29c-.22-.13-.63-.11-.9.05l-6.46,3.73c-.27.16-.31.39-.09.52l5.7,3.29c.22.13.63.11.9-.05ZM241.87,315.21l6.46-3.73c.27-.16.31-.39.09-.52l-5.7-3.29c-.22-.13-.63-.11-.9.05l-6.46,3.73c-.27.16-.31.39-.09.52l5.7,3.29c.23.13.63.11.9-.05ZM294.06,239.72c.23.13.63.11.9-.05l6.46-3.73c.27-.16.31-.39.09-.52l-1.52-.88c-.22-.13-.63-.11-.9.05l-6.46,3.73c-.27.16-.31.39-.09.52l1.52.88ZM246.94,269.35c.22.13.63.11.9-.05l6.46-3.73c.27-.16.31-.39.09-.52l-5.7-3.29c-.22-.13-.63-.11-.9.05l-6.46,3.73c-.27.16-.32.39-.09.52l5.7,3.29ZM265.83,258.44c.22.13.63.11.9-.05l6.46-3.73c.28-.16.31-.39.09-.52l-5.7-3.29c-.22-.13-.63-.11-.9.05l-6.46,3.73c-.27.16-.31.39-.09.52l5.7,3.29ZM235.4,276.01c.23.13.63.11.9-.05l6.46-3.73c.27-.16.31-.39.09-.52l-5.7-3.29c-.22-.13-.63-.11-.9.05l-6.46,3.73c-.27.16-.31.39-.09.52l5.7,3.29ZM256.38,263.89c.22.13.63.11.9-.05l6.46-3.73c.27-.16.31-.39.09-.52l-5.7-3.29c-.22-.13-.63-.11-.9.05l-6.46,3.73c-.27.16-.32.39-.09.52l5.7,3.29ZM216.51,286.91c.23.13.63.11.9-.05l6.46-3.73c.27-.16.31-.39.09-.52l-5.7-3.29c-.23-.13-.63-.11-.9.05l-6.46,3.73c-.27.16-.31.39-.09.52l5.7,3.29ZM225.96,281.46c.23.13.63.11.9-.05l6.46-3.73c.27-.16.31-.39.09-.52l-5.7-3.29c-.23-.13-.63-.11-.9.05l-6.46,3.73c-.27.16-.31.39-.09.52l5.7,3.29ZM275.17,250.63c.22.13.63.11.9-.05l6.46-3.73c.27-.16.31-.39.09-.52l-1.52-.88c-.22-.13-.63-.11-.9.05l-6.46,3.73c-.27.16-.32.39-.09.52l1.52.88ZM303.51,234.27c.23.13.63.11.9-.05l6.46-3.73c.27-.16.31-.39.09-.52l-1.52-.88c-.23-.13-.63-.11-.9.05l-6.46,3.73c-.27.16-.31.39-.09.52l1.52.88ZM315.48,241.18c.23.13.63.11.9-.05l6.46-3.73c.27-.16.31-.39.09-.52l-5.7-3.29c-.22-.13-.63-.11-.9.05l-6.46,3.73c-.27.16-.31.39-.09.52l5.7,3.29ZM333.84,262.11l6.46-3.73c.27-.16.32-.39.09-.52l-5.7-3.29c-.22-.13-.63-.11-.9.05l-6.46,3.73c-.27.16-.31.39-.09.52l5.7,3.29c.22.13.63.11.9-.05ZM284.62,245.18c.22.13.63.11.9-.05l6.46-3.73c.27-.16.31-.39.09-.52l-1.52-.88c-.23-.13-.63-.11-.9.05l-6.46,3.73c-.27.16-.31.39-.09.52l1.52.88ZM207.07,292.37c.22.13.63.11.9-.05l6.46-3.73c.27-.16.32-.39.09-.52l-5.7-3.29c-.22-.13-.63-.11-.9.05l-6.46,3.73c-.27.16-.31.39-.09.52l5.7,3.29Z"/><polygon class="cls-4" points="235.98 341.14 237.31 341.91 272.51 362.22 335.1 326.09 336.4 325.34 299.88 304.26 235.98 341.14"/><polygon class="cls-7" points="334.52 326.42 299.88 306.44 237.89 342.24 272.51 362.22 334.52 326.42"/></g><g id="Www"><g id="www"><path class="cls-5" d="M374.06,48.11c0-2.63-.92-4.49-2.41-5.37-1.51-.89-10.23-5.92-11.75-6.78-1.5-.86-3.57-.73-5.86.59l-163.26,94.26v54.03s11.7,6.75,11.7,6.75l163.26-94.26c4.59-2.65,8.31-9.1,8.31-14.4v-34.83Z"/><path class="cls-3" d="M374.06,48.11c0-2.63-.92-4.49-2.41-5.37-1.51-.89-10.23-5.92-11.75-6.78-1.5-.86-3.57-.73-5.86.59l-163.26,94.26v54.03s11.7,6.75,11.7,6.75l163.26-94.26c4.59-2.65,8.31-9.1,8.31-14.4v-34.83Z"/><path class="cls-5" d="M365.74,43.31c4.59-2.65,8.31-.5,8.31,4.8v34.83c0,5.3-3.72,11.75-8.31,14.4l-163.26,94.26v-54.03s163.26-94.26,163.26-94.26Z"/><path class="cls-10" d="M364.07,92.89c3.08-1.78,5.6-6.15,5.6-9.71v-32.18c0-2.54-1.8-3.57-3.99-2.31l-159.9,92.39v43.26l158.29-91.46Z"/><path class="cls-6" d="M233.64,157.66c0,.25-.06.5-.18.74-.12.25-.26.42-.42.51l-2.76,1.59c-.16.09-.3.08-.42-.03-.12-.11-.17-.29-.17-.54v-8.54c0-.97-.15-1.66-.46-2.06-.31-.41-.79-.42-1.45-.04-.66.38-1.14.95-1.44,1.71-.3.76-.45,1.62-.45,2.59v8.54c0,.25-.06.5-.18.74-.12.25-.25.42-.42.51l-2.76,1.59c-.16.09-.3.08-.42-.03-.12-.11-.18-.29-.18-.54v-22.14c0-.25.06-.5.18-.74.12-.25.25-.42.42-.51l2.76-1.59c.16-.09.3-.08.42.03.12.11.18.29.18.54v7.19c.25-.62.64-1.29,1.16-2.04.53-.74,1.13-1.31,1.82-1.71.7-.4,1.34-.62,1.93-.66.58-.03,1.08.14,1.5.53.42.39.74,1,.97,1.83.23.83.35,1.91.35,3.24v9.28Z"/><path class="cls-6" d="M241.23,147.34c0,.52.07.88.22,1.07.15.2.39.2.72,0l1.75-1.01c.16-.09.3-.08.42.03.12.11.17.29.17.54v3.41c0,.25-.06.5-.17.74-.12.25-.26.42-.42.51l-2.08,1.2c-.69.4-1.31.61-1.88.63s-1.04-.14-1.44-.49c-.39-.35-.7-.87-.92-1.56-.22-.69-.33-1.56-.33-2.59v-5.67l-1.62.94c-.16.09-.3.08-.42-.03-.12-.11-.17-.29-.17-.54v-3.41c0-.25.06-.5.17-.74.12-.25.26-.42.42-.51l1.62-.94v-5.5c0-.25.06-.5.17-.74.12-.25.26-.42.42-.51l2.76-1.59c.16-.09.3-.08.42.03.12.11.17.29.17.54v5.5l2.48-1.43c.16-.09.3-.08.42.03.12.11.17.29.17.54v3.41c0,.25-.06.5-.17.74-.12.25-.26.42-.42.51l-2.48,1.43v5.47Z"/><path class="cls-6" d="M251.62,141.34c0,.52.07.88.22,1.07.15.2.39.2.72,0l1.75-1.01c.16-.09.3-.08.42.03.12.11.17.29.17.54v3.41c0,.25-.06.5-.17.74-.12.25-.26.42-.42.51l-2.08,1.2c-.69.4-1.31.61-1.88.63-.56.02-1.04-.14-1.44-.49-.39-.35-.7-.87-.92-1.56-.22-.7-.33-1.56-.33-2.6v-5.67l-1.62.94c-.16.09-.3.08-.42-.03-.12-.11-.17-.29-.17-.54v-3.41c0-.25.06-.49.17-.74.12-.25.26-.42.42-.51l1.62-.94v-5.5c0-.25.06-.49.17-.74.12-.25.26-.42.42-.51l2.76-1.59c.16-.09.3-.08.42.03.12.11.17.29.17.54v5.5l2.48-1.43c.16-.09.3-.08.42.03.12.11.17.29.17.54v3.41c0,.25-.06.5-.17.74-.12.25-.26.42-.42.51l-2.48,1.43v5.47Z"/><path class="cls-6" d="M263.66,141.58c-.42.25-.8.39-1.12.44-.32.05-.6.04-.83-.03-.23-.07-.43-.17-.59-.32-.16-.14-.29-.29-.39-.43v7.19c0,.25-.06.5-.18.74-.12.25-.26.42-.42.51l-2.76,1.6c-.16.09-.3.08-.42-.03-.12-.11-.18-.29-.18-.54v-22.14c0-.25.06-.49.18-.74.12-.25.26-.42.42-.51l2.65-1.53c.16-.09.3-.08.42.03.12.11.17.29.17.54v.78c.13-.3.27-.62.43-.95.15-.34.34-.67.57-.99.23-.32.5-.64.83-.95.33-.31.74-.61,1.22-.89.66-.38,1.28-.59,1.86-.62.58-.03,1.1.14,1.53.53.44.39.79.99,1.06,1.8.27.81.42,1.87.45,3.18.01.33.02.78.02,1.35s0,1.03-.02,1.38c-.03,1.34-.18,2.58-.45,3.7s-.62,2.13-1.06,3.03c-.44.89-.95,1.67-1.53,2.32-.59.65-1.21,1.17-1.86,1.55ZM264.64,132.84c.04-.65.04-1.29,0-1.89-.04-.76-.21-1.35-.5-1.77-.29-.42-.78-.43-1.47-.03-.32.19-.6.43-.83.72-.23.29-.43.61-.58.96-.15.35-.27.7-.36,1.07-.09.37-.15.72-.17,1.08-.03.35-.04.76-.04,1.21s.01.83.04,1.16c.03.32.09.61.17.88.09.26.21.48.36.65.15.17.35.27.58.29.23.02.51-.06.83-.24.69-.4,1.18-.97,1.47-1.72.29-.75.46-1.54.5-2.35Z"/><path class="cls-6" d="M274.66,122.17c0,.25-.06.5-.17.74-.12.25-.26.42-.42.51l-2.87,1.66c-.16.09-.3.08-.42-.03-.12-.11-.17-.29-.17-.54v-4.42c0-.25.06-.49.17-.74.12-.25.25-.42.42-.51l2.87-1.66c.16-.09.3-.08.42.03.12.11.17.29.17.54v4.42ZM274.66,133.98c0,.25-.06.49-.17.74-.12.25-.26.42-.42.51l-2.87,1.66c-.16.09-.3.08-.42-.03-.12-.11-.17-.29-.17-.54v-4.42c0-.25.06-.5.17-.74.12-.25.25-.42.42-.51l2.87-1.66c.16-.09.3-.08.42.03.12.11.17.29.17.54v4.42Z"/><path class="cls-6" d="M283.78,104.11c.07-.29.18-.58.33-.88.15-.3.36-.53.64-.69l2.72-1.57c.13-.08.24-.07.34.02.09.09.14.24.14.44,0,.09-.01.2-.04.33l-7.39,31.57c-.06.26-.16.54-.31.85-.15.31-.37.55-.66.72l-2.67,1.54c-.13.08-.25.07-.34-.02-.1-.09-.14-.24-.14-.44,0-.09.01-.2.04-.33l7.34-31.55Z"/><path class="cls-6" d="M291.3,99.76c.07-.29.18-.58.33-.88.15-.3.36-.53.64-.69l2.72-1.57c.13-.08.24-.07.34.02.09.09.14.24.14.44,0,.09-.01.2-.04.33l-7.39,31.57c-.06.26-.16.54-.31.85-.15.31-.37.55-.66.72l-2.68,1.54c-.13.08-.24.07-.34-.02-.1-.09-.14-.24-.14-.44,0-.09.01-.2.04-.33l7.34-31.55Z"/><path class="cls-6" d="M305.79,99.36c.22-.13.39-.13.5-.02.12.11.2.25.24.4l1.62,6.73,1.62-8.6c.04-.21.12-.43.24-.68.12-.25.28-.44.5-.56l2.72-1.57c.15-.08.27-.08.37.02.1.1.15.26.15.49,0,.09,0,.18-.02.28l-3.49,17.64c-.04.23-.12.46-.23.71-.11.24-.27.43-.49.56l-2.5,1.44c-.22.13-.38.13-.48,0-.1-.12-.18-.27-.24-.43l-1.56-6.19-1.56,7.99c-.06.24-.14.47-.24.71-.1.24-.26.42-.48.55l-2.5,1.44c-.22.13-.38.13-.49.01-.11-.12-.19-.26-.23-.44l-3.49-13.62c-.01-.08-.02-.17-.02-.26,0-.22.05-.45.15-.66.1-.22.23-.37.37-.45l2.72-1.57c.22-.13.39-.13.5-.02.12.11.2.25.24.4l1.62,6.73,1.62-8.6c.04-.2.12-.43.24-.68.12-.25.29-.44.5-.56l2.06-1.19Z"/><path class="cls-6" d="M324.78,88.4c.22-.13.39-.13.5-.02s.2.25.24.4l1.62,6.72,1.62-8.6c.04-.2.12-.43.24-.68.12-.25.29-.44.5-.56l2.72-1.57c.15-.08.27-.08.37.02.1.1.15.26.15.49,0,.09,0,.18-.02.28l-3.49,17.64c-.04.23-.12.46-.23.71-.11.24-.27.43-.49.56l-2.5,1.44c-.22.13-.38.13-.48,0-.1-.12-.18-.27-.24-.43l-1.56-6.19-1.56,7.99c-.06.24-.14.47-.24.71-.1.24-.26.42-.48.55l-2.5,1.44c-.22.13-.38.13-.49.01-.11-.12-.19-.26-.23-.44l-3.49-13.62c-.01-.08-.02-.17-.02-.26,0-.22.05-.45.15-.66.1-.22.23-.37.37-.45l2.72-1.57c.22-.13.39-.13.5-.02s.2.25.24.4l1.62,6.72,1.62-8.6c.04-.21.12-.43.24-.68.12-.25.28-.44.5-.56l2.06-1.19Z"/><path class="cls-6" d="M343.76,77.44c.22-.13.39-.13.5-.02.12.11.2.25.24.4l1.62,6.73,1.62-8.6c.04-.2.12-.43.24-.68.12-.25.28-.43.5-.56l2.72-1.57c.15-.09.27-.08.37.02.1.1.15.26.15.49,0,.09,0,.18-.02.28l-3.49,17.64c-.04.23-.12.46-.23.71-.11.24-.27.43-.49.55l-2.5,1.44c-.22.13-.38.13-.48,0-.1-.12-.18-.27-.24-.43l-1.56-6.19-1.56,7.99c-.06.24-.14.47-.24.71-.1.24-.26.42-.48.55l-2.5,1.44c-.22.13-.38.13-.49.01-.11-.12-.19-.26-.23-.44l-3.49-13.62c-.01-.08-.02-.17-.02-.26,0-.22.05-.45.15-.66.1-.22.23-.37.37-.45l2.72-1.57c.22-.13.39-.13.5-.02.12.11.2.25.24.4l1.62,6.73,1.62-8.6c.04-.21.12-.43.24-.68s.29-.43.5-.56l2.06-1.19Z"/><path class="cls-6" d="M356.59,86.68c0,.25-.06.5-.18.74-.12.25-.26.42-.42.51l-2.87,1.66c-.16.09-.3.08-.42-.03-.12-.11-.17-.29-.17-.54v-4.42c0-.25.06-.5.17-.74.12-.25.26-.42.42-.51l2.87-1.66c.16-.09.3-.08.42.03.12.11.18.29.18.54v4.42Z"/></g><g id="World"><g id="Check"><g id="Circle"><path class="cls-7" d="M195.28,121.84h0s-.08-.05-.08-.05c0,0,0,0,0,0l-20.01-11.88s-.01,0-.02-.01l-.11-.07h0c-8.81-5.31-20.57-4.47-33.22,3.79-25.41,16.59-44.77,56.82-43.24,89.87.76,16.47,6.57,28.04,15.34,33.46h0s.08.05.08.05c0,0,0,0,0,0l20.01,11.88s0,0,0,0l.09.06h0c8.81,5.32,20.58,4.49,33.24-3.77,25.41-16.59,44.77-56.82,43.24-89.87-.76-16.47-6.57-28.04-15.34-33.45Z"/><path class="cls-4" d="M133.41,248.46l-19.36-11.47h-.01s-.08-.06-.08-.06c-8.77-5.43-14.58-17-15.34-33.44-.68-14.74,2.8-30.89,9.1-45.74l.13-.33,19.89,12.2c-6.31,14.84-9.78,31-9.1,45.74.74,16.12,6.32,27.54,14.79,33.1Z"/><path class="cls-6" d="M167.39,245.16c25.41-16.59,44.76-56.82,43.24-89.87-1.52-33.04-23.36-46.38-48.76-29.79-25.41,16.59-44.77,56.82-43.24,89.87,1.53,33.04,23.36,46.38,48.76,29.79Z"/></g></g><path class="cls-5" d="M153.05,236.43c-3.4,0-6.6-.82-9.47-2.48-8-4.6-12.59-15.16-12.59-28.96,0-25.39,15.43-55.02,34.4-66.05,8.63-5.02,17.05-5.66,23.73-1.82,8,4.6,12.59,15.16,12.59,28.96,0,25.39-15.43,55.02-34.4,66.05-4.91,2.86-9.76,4.3-14.26,4.3ZM179.64,138.48c-3.83,0-8.03,1.26-12.33,3.77-17.92,10.42-32.5,38.57-32.5,62.75,0,12.39,3.89,21.74,10.67,25.64,5.44,3.13,12.51,2.49,19.9-1.81,17.92-10.43,32.5-38.57,32.5-62.75,0-12.39-3.89-21.74-10.67-25.64-2.27-1.31-4.83-1.96-7.57-1.96Z"/><path class="cls-5" d="M153.05,172.95c-4.21,0-8.08-1.31-11.42-3.93l1.77-2.26c5.84,4.58,13.74,4.38,22.24-.56,8.8-5.12,17.07-14.61,23.29-26.71l2.55,1.31c-6.46,12.58-15.13,22.48-24.4,27.88-4.89,2.84-9.64,4.27-14.03,4.27Z"/><path class="cls-5" d="M143.78,231.58l-2.55-1.31c6.46-12.58,15.13-22.48,24.4-27.87,9.58-5.57,18.62-5.69,25.45-.34l-1.77,2.26c-5.85-4.58-13.74-4.38-22.24.56-8.8,5.12-17.07,14.6-23.29,26.7Z"/><path class="cls-5" d="M162.65,233.01c-1.33,0-2.63-.36-3.87-1.07-6.74-3.88-10.93-17.85-10.93-36.47,0-25.66,7.81-50.31,17.79-56.11,2.82-1.64,5.69-1.72,8.3-.22,6.74,3.88,10.93,17.85,10.93,36.47,0,25.66-7.81,50.31-17.79,56.11-1.48.86-2.97,1.29-4.43,1.29ZM170.05,140.94c-.95,0-1.94.3-2.97.9-8.87,5.16-16.36,29.72-16.36,53.63,0,19.7,4.77,31.26,9.49,33.98,1.71.99,3.49.92,5.43-.21,8.87-5.16,16.36-29.72,16.36-53.63,0-19.7-4.77-31.26-9.49-33.98-.8-.46-1.61-.69-2.45-.69Z"/><rect class="cls-5" x="164.92" y="140.6" width="2.87" height="89.88"/><rect class="cls-5" x="127.65" y="184.11" width="77.4" height="2.87" transform="translate(-70.75 108.84) rotate(-30.2)"/></g></g></g></svg>